<svg xmlns="http://www.w3.org/2000/svg" xml:space="preserve" id="Layer_1" x="0" y="0" style="enable-background:new 0 0 432 356" version="1.1" viewBox="0 0 432 356"><style>.st1{fill:#eaeaea}</style><path d="M354.8 118.1c-2.3-5.2-4.9-10.8-8.1-16.3-17.9-31.8-50.3-53.4-84.5-66.6S191.6 16 156.1 7.6C141 4 125.7-.1 110.1 0 77.6.3 47 19.6 28.3 46.2S1.5 105.9.2 138.4c-1.2 29.2 3.2 59.8 19.5 83.9 8.7 12.9 20.5 23.4 32.3 33.9l54.6 48.6c9.7 8.7 19.8 17.6 31.6 23.6 38.6 19.5 97 3.8 127.3-23.3 7.3-6.5 15-12.4 22.8-18.2 15-11.1 30.4-22.1 42.5-36.6 10.2-12.4 18-26.5 23.6-41.6 12.1-34.5 13.4-60.4.4-90.6z" style="fill:#f9dee7"/><path d="M135.7 70.1c1.6 19.3 8.1 24.7 1.1 44.3-6.5 18.2-22.5 30.9-25.5 50.8-2.2 14.1.3 37.2 9.1 49.1 12.8 17.2 44.3 9.5 62.1 7.5 20.3-2.3 65.2-1.4 78.7-20.6 10.2-14.6-.4-41.9-3.5-57.5l-11.5-59.4c-3.2-18-7.7-47.4-20.3-62.1C215.2 9.7 200.4 8.7 182.7 11c-33.5 4.4-49.1 35-47 59.1z" class="st1"/><path d="M236.8 146.3c14.5-.4 26.5 11 26.9 25.5s-7.5 51.8-18.5 42.4c-21.7-18.4-32.4-29.6-32.9-44-.4-14.5 10-23.5 24.5-23.9z" class="st1"/><path d="m255.5 161.4-25.1 8.3-4.5 26.8s55.2 67.1 73.2 76.4c19.1 10 14-7.4 12.8-14.7-.1.1-42.2-87.7-56.4-96.8z" class="st1"/><path d="M310.2 275.2s46.8-23.3 77-49.5c0 0 2.9-9.1-5.1-7.1-7.6 1.9-83.2 21.6-88.1 27.8-4.8 6.3 16.2 28.8 16.2 28.8z" class="st1"/><path d="m420.1 219.6-7.2 3.3s14.8-3.1 16.9-9.4c0 0 .8-1.2-1.7-1.9 0 0-11.7 5.3-17.6 6.4 0 0 12.8-2.9 20.6-7.7 0 0 2.2-3.7-2.3-3.9 2.1-2.3-1-2.9-1-2.9s-3-.1-9.3.8c0 0-9.7 1.4-21.3 1.8 0 0 5.1-8.7.3-11.3l-8.6 11.9-7.2 12 2.1 7.8 14.7 2.2s12.8-1 18.9-3.8c.1.2 17.1-9.1 2.7-5.3zM167.3 143.4H212c-2-6.5-6.2-23.4.3-34.8L167.1 79c.1-.1 8.1 49.7.2 64.4z" class="st1"/><path d="M136.6 147.3c-20.1 9.8-8.9 33.5-8.9 33.5l27.2 98.9s25.4 10.4 69.9 5.2c6.2-8.9 18.9-46 23.2-74.3 3.5-23.4 14.4-46.3 2.5-59.4-4.6-5-39.2-10-39.4-10.8h-41.7l-32.8 6.9zm82.6-34.6 2.7-6.6 6.8-19.5c1-3.1 1.6-7.4.6-10.5-1.1-3.8-1.8-9.8-.1-16.5 4.6-17.8-2.9-27.6-2.9-27.6-9.6-17.1-34.4-18.2-34.4-18.2-30.7.1-34.7 29.5-34.7 29.5-5.9 19.5 8.9 36.6 9 36.7 1.9 2.2 1.9 5.5 2.7 8.1.9 2.8 2.3 5.4 4.1 7.7 4 5.1 9.4 10.2 15 13.4 5.3 3.1 15.8 6.5 23.3 6.8 3.3.2 6.4.4 7.9-3.3z" class="st1"/><path d="M169.1 91.7c.5-14 .9-13.1.9-13.1.5-4.1 8.1 5.1 8.2-.2.5-24.4 9.9-35.5 13.5-37.2 9.6-4.6 19.7-5.5 27.5-3.8 12.2 2.8 10.9 19.2 10.9 19.2 13.5-59.5-54.4-43.7-54.4-43.7-33.1 6.9-31.2 37.8-31.2 37.8-5.7 32.8 25.8 53.4 25.8 53.4l-1.2-12.4z" class="st1"/><path d="M171.5 87.1c-1.3.8-2.8 1.2-4.3 1.1-4.7-.3-8.5-4.9-8.3-10.3.1-5.4 4.1-9.5 8.9-9.2 2.3.1 4.2 1.3 5.7 3 2.2 2.5 2 6.9 1.3 9.9-.5 2.3-1.6 4.2-3.3 5.5z" style="fill:#f8a07d"/><path d="M169.4 73.7c-.1-2.9-6-.4-5.2 1.2.5 1 1.4 1.6 2.2 2.3 1 1 1.5 1.8 1.6 3.2 0 .1 0 .7-.1.8-.8.5-3.1-2.4-3.6-3-1-1.2-1-3.1-.5-4.6.6-1.5 1.6-2.1 3.2-2 1.3.1 2.6.3 2.5 1.9 0 .1-.1.3-.1.2zm-2 2.9c.6-.5 1.2-.1 1.8.4.5.5.8 1 1 1.7.3 1.5-.1 3.5-1 4.7-.8 1-1.9 1.6-3.1 1.5-1.7-.1-2.2-1.7-2.1-3.1 0-.4 0-1.3.4-1.6s.7.4 1 .7c.3.4 1 .5 1.4.6 1 .1 2-.3 2.6-1 .1-.1.2-.3.3-.4-.1 1-.1 1.2-.2.6-.1-.3-.1-.5-.3-.7-.3-.7-1-1.2-1.4-1.8-.4-.3-.7-1.4-.4-1.6z" style="fill:#e98b6f"/><path d="M171.7 88c-.1 1.6-1.4 2.9-3.1 2.7-1.6-.1-2.8-1.4-2.7-3.1.1-1.6 1.4-2.9 3.1-2.7 1.5.2 2.7 1.6 2.7 3.1z" style="fill:#fff"/><path d="M163.2 168.3c.9 14.4-6.6 28.6-21.1 29.5-14.4.9-52.1-5.7-43-17 17.7-22.3 28.4-33.5 42.8-34.4 14.5-.9 20.4 7.5 21.3 21.9z" class="st1"/><path d="m152.2 189.3-9.2-24.8-26.9-3.6s-65.2 57.4-73.9 75.8c-9.3 19.5 7.9 13.7 15.1 12.2 0 0 86.2-45.1 94.9-59.6z" class="st1"/><path d="M40.7 249.2s32.4 45.7 62.7 71.7c0 0 13-1.3 8.9-8.4-7-12.1-35.9-68.6-43-80.7-4-6.8-28.6 17.4-28.6 17.4z" class="st1"/><path d="m112.3 312.5 15.3 3.9 6.6-8.5c-.1 9.4 3 15.9 3 15.9 8.5 9.1 13.7 16.2 13.7 16.2 3.3 3.1-.4 4.8-.4 4.8-6.3-1.8-18.1-11.1-18.1-11.1 5.9 6.1 17.2 14.8 17.2 14.8 2.3 3-1.5 4-1.5 4-9-.2-19.4-13.6-19.4-13.6 3.8 5.2 14.5 14.1 14.5 14.1.5 2.7-1 2.5-1 2.5-7.2.9-17.1-12-17.1-12l3.9 4.7c5.9 6 .5 6.6.5 6.6l-3.6-2.7c-10.7-8.3-14.8-18.9-14.8-18.9l-7.4-12.4 8.6-8.3z" class="st1"/><path d="M39.5 243.4s-2.7 3.8 6.7 16.5c0 0 35 50.5 57.6 62.8 0 0 10-4 11.2-11.4 0 0-30-69-48.6-80.7-.1 0-15-10.9-26.9 12.8zM244.8 147.1s18 2.9 20.7 22.6c0 0 56.4 82.9 45.6 106.4 0 0-18.2 13-79.4-74.3.1-.2-15.1-42 13.1-54.7z" class="st1"/><path d="m223.4 142.8 19.3 3.5s14.1 3.1 14.5 15.1c0 0 .8 22.8-11.6 64 0 0-20.5-63.3-22.2-82.6z" class="st1"/><path d="m218.5 142.1 8.7 1.4s16.9 32.6 20.8 67.1c-4.2 28.3-12.8 71.2-23.2 74.3-35.1 10.4-71.8-5.9-71.8-5.9l-16.8-67.1c45.2-17.6 22.3-69.1 22.3-69.1l9.5-2.3 39.9 40.3 10.6-38.7z" class="st1"/><path d="m158.6 142.7-22.3 3.7s-10.7 3.8-17 11.5c0 0-89.3 66.7-79.4 90.7 0 0 2.9 8.1 12.2 5.6l86.5-40.8c-.2 0 48-22.3 20-70.7z" class="st1"/><path id="B" d="M236.3 164.3s17.6 24.5 20.7 37c2 8.3-12.4 26.9-24 30.2-6.4 1.8-6.5-65.5 3.3-67.2z" class="st1"/><path d="M293 240.5s30.5-13.1 86.1-24.8c0 0 9.5 9.6 8.6 15.8 0 0-66.7 45.2-76.5 44.4-.1.1-22.3-15.7-18.2-35.4z" class="st1"/><path id="B_1_" d="M236.3 164.3s17.6 24.5 20.7 37c2 8.3-12.4 26.9-24 30.2-6.4 1.8-6.5-65.5 3.3-67.2z" class="st1"/><path d="M228.5 143.4s16.1 32.8 20 67.4c-4.2 28.3-13.3 71-23.7 74.1-35.1 10.4-71.8-5.9-71.8-5.9l-16.8-67.1c45.2-17.6 22.3-69.1 22.3-69.1l9.5-2.3 42.2 60.3 8.3-58.7 10 1.3z" class="st1"/><path d="m151.5 272.7-26.9 44.5s23.9 23.6 70.9 27.8c0 0 32.9.8 53.1-17.6l-16.8-54.7h-80.3zM215.2 32c-20.8 10-32.7 19.7-28.7 44.5 3.6 22.4 4.6 34.6-8.6 53.8-12.4 18-14 28.6-5.1 49 7.1 16.4 14.1 32.2-6.2 40.8-38.5 16.3-71.9-15.3-55.7-55.3 7.2-17.9 23.2-29.6 31.4-46.7 8.3-17.4 1.9-32.9 1.3-50.9-1.1-30.1 42.1-71.7 66.4-41.3 2 2.5 3.7 5.7 5.2 8.6V32z" class="st1"/></svg>