<svg xmlns="http://www.w3.org/2000/svg" xml:space="preserve" id="Layer_1" x="0" y="0" style="enable-background:new 0 0 1905.1 1306.2" version="1.1" viewBox="0 0 1905.1 1306.2"><style>.st0{fill:#dedede}</style><path d="m56 1306.2-.6-9.4-9.9-58.1-34.4 3.7-9.3 54.5-1.8 9.3h56z" class="st0"/><path d="M140.5 873.3s-85.5 296.3-95 365.5c0 0-30.6 34-34.4 3.6-7.7-60.6 16.2-376 32.4-400.5s97 31.4 97 31.4z" class="st0"/><path d="M31.5 895.2S9.6 1061.3 7.4 1263.9c0 0 36.7 9.5 54.7 1.7 0 0 100.5-274.2 87-402.1 0 0-92.2-49.5-117.6 31.7zM432.2 276.2c-5.1 58.9-24.9 75.3-3.4 135.3 19.8 55.5 68.6 94.5 77.9 155 6.6 43-1 113.8-27.8 150-39 52.6-135.1 29-189.6 23-62-6.8-199.3-4.2-240.3-62.9-31.1-44.5 1.2-128 10.6-175.6l35.2-181.2c9.8-55.1 23.4-144.8 61.9-189.6 32.7-38.1 77.8-41.4 131.9-34.4C391 109.2 438.5 202.6 432.2 276.2z" class="st0"/><path d="M123.6 509.1c-44.2-1.2-81 33.6-82.3 77.8-1.2 44.2 22.9 158.2 56.5 129.5C164 660.1 197 626.2 198.2 582c1.3-44.2-30.4-71.6-74.6-72.9z" class="st0"/><path d="m61.6 570.9 80-10.9 48.5 67.3s-60.9 258.3-97.6 308.1c-39.1 53.1-48.5-1.6-54.8-23.1 0 0-2.7-297.2 23.9-341.4zM332.2 1306.2l8.8-38.7-218.5-134.1s-28.7 101.1-44 172.8h253.7z" class="st0"/><path d="m331.5 1306.2 3.4-24.7c39.4-177.8-222.9-164.8-222.9-164.8-23.7 43.4-40.4 111.8-52.3 189.5h271.8z" class="st0"/><path d="M211.9 912.6c-10.1-1.8-52 19.8-52 19.8s-52.2 167.9-54.5 193.4 173.3 157.6 369.4 82.4c0 0-90.8-236.4-96.3-294.6-5.5-58.3-166.6-1-166.6-1z" class="st0"/><path d="M160 932.3s-50.1 151.4-54.5 193.4c-15.6 148.7 185.6 211.1 381.7 135.8 0 0 12.7-204.5-108.7-348 0 0-32.2 29.4-218.5 18.8zm326.6 373.9.6-12.1-22.1 12.1h21.5z" class="st0"/><path d="M485.5 1306.2c13-124-54.2-143.4-54.2-143.4-116.7-52.1-224.2 14.7-208.9 143.4h263.1zM330.2 342.4c-1.7-42.7-2.6-40-2.6-40-1.6-12.4-24.7 15.7-25.1-.6-1.5-74.5-30.3-108.5-41.1-113.7-29.5-14.1-60-17-83.8-11.5-37.3 8.6-33.3 58.6-33.3 58.6-41.4-181.7 166-133.5 166-133.5 100.9 21.1 95.4 115.4 95.4 115.4 17.3 100.1-78.9 163.2-78.9 163.2l3.4-37.9z" class="st0"/><path d="M322.9 328.2c3.5 2.4 7.8 3.7 13.2 3.3 14.5-.9 25.8-15.1 25.3-31.6s-12.6-29.1-27-28.1c-6.9.5-13 3.9-17.5 9.1-6.6 7.6-6.1 21.1-4 30.2 1.6 7.2 4.8 13.5 10 17.1z" class="st0"/><path d="M329.3 287.4c.4-8.7 18.3-1.3 15.9 3.7-1.4 2.9-4.4 5.1-6.6 7.2-3.2 2.8-4.7 5.4-4.9 9.7 0 .5-.1 2 .5 2.3 2.3 1.5 9.3-7.4 10.9-9.2 3-3.7 3.2-9.7 1.4-13.9-1.9-4.5-5-6.5-9.9-6-3.9.4-7.9.9-7.5 5.8 0 0 .2.8.2.4zm6 8.6c-1.9-1.7-3.6-.1-5.4 1.3-1.7 1.4-2.5 3.2-2.9 5.3-.8 4.5.1 10.5 2.9 14.3 2.2 3.1 5.8 4.8 9.6 4.5 5.3-.4 6.6-5.1 6.6-9.6 0-1.2 0-4-1.2-4.7-1.3-.7-2.1 1.3-2.9 2.2-1.1 1.2-2.8 1.7-4.4 1.9-3 .4-6-1-8-3.1-.4-.4-.7-.8-.9-1.3.1 2.9.3 3.6.6 1.9.2-.8.5-1.5.9-2.1 1.1-2.1 3.1-3.5 4.4-5.6.6-.9 1.7-4.1.7-5zM322.4 331.2c.2 4.9 4.4 8.7 9.3 8.4 4.9-.2 8.7-4.4 8.4-9.3-.2-4.9-4.4-8.7-9.3-8.4-4.9.2-8.7 4.4-8.4 9.3zM348.2 576.4c-2.8 44.1 20.3 87.5 64.5 90.2 44.1 2.8 158.9-17.4 131.4-52-54-68.1-86.8-102.2-130.9-104.9-44.2-2.9-62.3 22.5-65 66.7z" class="st0"/><path d="m381.9 640.5 28.1-75.7 82.2-11.1S691.3 729.2 718 785c28.4 59.5-24.3 42-46.1 37.4-.1.1-263.6-137.6-290-181.9z" class="st0"/><path d="M722.4 823.4s-99.2 139.5-191.6 219c0 0-39.8-4-27.2-25.7 21.5-36.9 109.7-209.5 131.4-246.5 12.3-20.8 87.4 53.2 87.4 53.2z" class="st0"/><path d="m503.7 1016.7-46.6 11.9-20-26c.2 28.8-9.1 48.5-9.1 48.5-26 27.7-41.7 49.4-41.7 49.4-10.2 9.4 1.2 14.6 1.2 14.6 19.1-5.7 55.3-33.8 55.3-33.8-18.1 18.7-52.5 45.3-52.5 45.3-7 9.2 4.7 12 4.7 12 27.5-.7 59.3-41.5 59.3-41.5-11.5 15.8-44.3 43.2-44.3 43.2-1.4 8.2 3.2 7.8 3.2 7.8 21.9 2.8 52.4-36.6 52.4-36.6l-11.8 14.5c-17.9 18.4-1.4 20.3-1.4 20.3l10.9-8.1c32.7-25.4 45.2-57.7 45.2-57.7l22.6-37.9-27.4-25.9z" class="st0"/><path d="M726.1 805.7s8.1 11.7-20.4 50.5c0 0-106.8 154.1-175.8 191.7 0 0-30.4-12.1-34.3-34.8 0 0 91.5-210.7 148.5-246.6s45.4-33.3 82 39.2M77.1 522s-41.4 10.3-41.4 102.7c0 0-32.9 318.3 24.4 333.8 0 0 71.5 22.7 123.5-308.3.1-.1-11.8-129.7-106.5-128.2z" class="st0"/><path d="m164.4 498.5-58.9 10.6s-42.9 9.4-44.3 46.1c0 0-2.4 69.6 35.5 195.5-.1 0 62.6-193.1 67.7-252.2z" class="st0"/><path d="m179.4 496.2-26.5 4.1s-51.5 99.6-63.7 205c13 86.6 39.1 217.6 70.8 227 107.3 31.7 219.3-18.1 219.3-18.1l51.3-204.9c-137.8-53.7-68.2-211.2-68.2-211.2l-28.9-6.9-121.8 123.1-32.3-118.1" class="st0"/><path d="m362.5 498.1 68.2 11.3s32.7 11.6 51.9 35c0 0 272.9 203.8 242.7 277.1 0 0-8.9 24.8-37 17.1L424 714s-147.4-68-61.5-215.9zM125 564.2s-53.9 74.6-63.2 113c-6.2 25.3 37.9 82.2 73.4 92.2 19.4 5.5 19.8-200.2-10.2-205.2zM384.1 895.2l82.1 136.1s-73 72-216.6 84.8c0 0-100.6 2.5-162-53.8l51.3-167.1h245.2z" class="st0"/><path d="M189.4 159.9c63.5 30.7 99.9 60.1 87.7 136-11 68.5-14 105.9 26.4 164.4 38 55 42.8 87.2 15.6 149.6-21.8 50.1-43.2 98.2 19 124.5 117.5 49.6 219.6-46.8 170.3-168.8-22.1-54.7-70.9-90.3-95.9-142.6-25.3-53.1-5.9-100.4-3.9-155.4 3.4-92.1-128.5-218.8-202.8-126-6.2 7.8-11.4 17.4-16 26.3l-.4-8zM1557.1 1306.2h271.7c-11.9-77.6-28.7-146.1-52.3-189.5 0 0-262.3-13-222.9 164.8 0 0 1.1 9 3.5 24.7zM1752.7 317.5c5.3 66 17.9 130.9 54 188 10 15.9 20.2 32.7 34.2 45.5-54 11.5-196 11.1-217.7-69.6-14.2-52.8-17.2-108-15.4-162.3 1.7-49.2 2.8-104.1 23.7-149.5 19-41.3 86-40.8 110.9-2.9 12.1 18.4 5.3 41 6 61.8 1 29.5 1.9 59.4 4.3 89z" class="st0"/><path d="M1764.9 509.1c44.2-1.2 68.4 38.1 82.2 77.8 14.5 41.8-22.8 158.2-56.5 129.5-66.2-56.3-99.2-90.2-100.4-134.4s30.5-71.6 74.7-72.9zM1676.6 912.6c10.1-1.8 52 19.8 52 19.8s52.2 167.9 54.5 193.4-173.3 157.6-369.4 82.4c0 0 90.8-236.4 96.3-294.6 5.6-58.3 166.6-1 166.6-1z" class="st0"/><path d="M1728.6 932.3s50.1 151.4 54.5 193.4c15.6 148.7-185.6 211.1-381.7 135.8 0 0-12.7-204.5 108.7-348-.1 0 32.2 29.4 218.5 18.8zM1423.5 1306.2l-22.1-12.1.6 12.1h21.5z" class="st0"/><path d="M1666.2 1306.2c15.2-128.8-92.2-195.5-208.9-143.4 0 0-67.2 19.4-54.2 143.4h263.1zm-113.3-805.9h136.5c-6.2-19.9-19.1-71.3.8-106.3l-137.9-90.5c0-.1 24.5 151.9.6 196.8z" class="st0"/><path d="M1461.4 513.2c-63.9 30.5-29.6 101.1-29.6 101.1l83 302.2s77.6 31.7 213.7 15.8c18.9-27.1 57.8-140.4 70.8-227 10.7-71.3 44-141.5 7.7-181.3-13.9-15.2-119.8-30.5-120.4-32.9l-125.1-.5-100.1 22.6zm250-106.8 8.3-20.1 20.7-59.4c2.9-9.5 4.8-22.5 1.9-32-3.4-11.4-5.5-29.9-.3-50.2 14-54.3-8.9-84.2-8.9-84.2-29.5-52.1-105.1-55.7-105.1-55.7-93.7.1-105.9 90.2-105.9 90.2-18.1 59.5 27.4 111.9 27.5 112 5.8 6.6 5.9 16.9 8.4 24.9 2.7 8.5 7 16.5 12.5 23.6 12.4 15.7 28.8 31 46 40.9 16.3 9.4 48.2 19.7 71.2 20.7 9.6.2 19 .8 23.7-10.7z" class="st0"/><path d="M1558.3 342.4c1.7-42.7 2.6-40 2.6-40 1.6-12.4 24.7 15.7 25.1-.6 1.5-74.5 30.3-108.5 41.1-113.7 29.5-14.1 60-17 83.8-11.5 37.3 8.6 33.3 58.6 33.3 58.6 41.4-181.7-166-133.5-166-133.5-100.9 21.1-95.4 115.4-95.4 115.4-17.3 100.1 78.9 163.2 78.9 163.2l-3.4-37.9z" class="st0"/><path d="M1565.6 328.2c-3.5 2.4-7.8 3.7-13.2 3.3-14.5-.9-25.8-15.1-25.3-31.6s12.6-29.1 27.1-28.1c6.9.5 13 3.9 17.5 9.1 6.6 7.6 6.1 21.1 4 30.2-1.7 7.2-4.9 13.5-10.1 17.1z" class="st0"/><path d="M1559.3 287.4c-.4-8.7-18.3-1.3-15.9 3.7 1.4 2.9 4.4 5.1 6.7 7.2 3.2 2.8 4.7 5.4 4.9 9.7 0 .5.1 2-.5 2.3-2.3 1.5-9.3-7.4-10.9-9.2-3-3.7-3.2-9.7-1.4-13.9 1.9-4.5 5-6.5 9.9-6 3.9.4 7.9.9 7.4 5.8 0 0-.2.8-.2.4zm-6.1 8.6c1.9-1.7 3.6-.1 5.4 1.3 1.7 1.4 2.5 3.2 2.9 5.3.8 4.5-.1 10.5-2.9 14.3-2.2 3.1-5.8 4.8-9.6 4.5-5.3-.4-6.6-5.1-6.6-9.6 0-1.2.1-4 1.2-4.7 1.3-.7 2.1 1.3 2.9 2.2 1.1 1.2 2.8 1.7 4.4 1.9 3 .4 6-1 8-3.1.3-.4.7-.8.9-1.3-.2 2.9-.3 3.6-.6 1.9-.2-.8-.5-1.5-.9-2.1-1.1-2.1-3.1-3.5-4.4-5.6-.6-.9-1.7-4.1-.7-5zM1799.4 515.9s33.5 0 52.5 84.8c0 0 92.9 282.1 33.3 298.4 0 0-89-17.5-172.7-242.2-.1.1-7.7-135.6 86.9-141z" class="st0"/><path d="m1724.2 498.5 58.9 10.6s42.9 9.4 44.4 46.1c0 0 2.4 69.6-35.5 195.5-.1 0-62.7-193.1-67.8-252.2z" class="st0"/><path d="m1709.1 496.2 26.5 4.1s51.5 99.6 63.7 205c-13 86.6-39.1 217.6-70.8 227-107.3 31.7-219.4-18.1-219.4-18.1l-51.3-204.9c137.8-53.7 68.2-211.2 68.2-211.2l29-6.9 121.8 123.2 32.3-118.2M1834.8 1306.2c-14.6-81.6-33.8-156.3-59-202.6 0 0-356.6-33-373.3 100.3l-4.3 102.3h436.6z" class="st0"/><path d="M1433.4 534s-14.3 14.9-25.9 57.8c0 0-56.5 206.6-14.9 311.5 0 0 13.6 21.3 48.6 30.8l111.1-267.3s47.4-111.9-27.9-169.8l-63 16.1c0 .1-18.3 7-28 20.9z" class="st0"/><path d="m1785.2 763.1-255.6-30.6c-12.8 15.6-25.1 43.9-19.6 73.6l326.5 103.6s86.3 15.3 63.5-88.6c0 .1-36.4-52.9-114.8-58z" class="st0"/><path d="M1446.1 935.6s-70 6.4-52.5-69.8c15.1-42.9 70.9-60.4 70.9-60.4l230.9-69.7s22 8.4 31.7 62.1c0-.1-201.9 139.8-281 137.8zM1588.8 315.4c-8.5 65.7-9.7 131.7 13.8 195.2 6.5 17.6 13 36.2 24 51.6-55.2 0-194-29.9-198.5-113.3-2.9-54.5 5.5-109.2 18.7-162 11.9-47.7 24.4-101.2 54.2-141.3 27.1-36.5 92.6-22 109.1 20.2 8 20.5-3.3 41.2-7 61.7-5.2 29.1-10.5 58.5-14.3 87.9z" class="st0"/><path d="M1494.5 1306.2c2.5-106.8-9.3-335.9-22.4-357-15.4-25-97.9 28.3-97.9 28.3s56.7 223.4 76.8 328.8l43.5-.1z" class="st0"/><path d="m1435.8 617.3 24.9 8.1s39.4 306.6 6.1 375.1c-33.4 68.5-71.8-.3-84.3-8.1-12.5-7.7-92.3-355-92.3-355l145.6-20.1z" class="st0"/><path d="m1489.4 964.9-15.9-384.1c-18-94.3-114.6-66.2-114.6-66.2-78.3 20.4-74.5 108.1-74.5 108.1l67.3 367.9s14.1 56.3 86.5 56.3c0-.1 53.4-7.3 51.2-82z" class="st0"/><path d="M1421 1306.2h84.1c-.4-98.5-3.7-292.6-23.2-369.3 0 0-133.1 2.8-123.6 66.7 0-.1 25 167.7 62.7 302.6z" class="st0"/><path d="m1388.6 1045.1 70.2-429.3s24.2-64.5-24.2-96.8l-184.5-86.7H1120L898.2 563.5l145.4 481.7 345-.1zM1388.1 1306.2l.5-261h-344.9s-34.9 79.6-47.2 261h391.6z" class="st0"/><path d="M1234.2 1306.2c-16.1-51.4-62.9-88.4-118-88-54.4.4-100.3 37.3-116.1 88h234.1z" class="st0"/><path d="M1136.8 1306.2c-9.5-1.4-19.7-1.5-30.9 0h30.9zm242.9 0c-15.1-49.3-49.3-82.5-103.4-77-46.4 4.7-84.1 35.5-100.8 77h204.2zM911.4 1306.2c-2.5-57-2.7-117.3 15.4-299.3 0 0-79.9-37-97.1 3-8 18.8 7.3 188 25.1 296.2l56.6.1z" class="st0"/><path d="M983.1 571.3C897.5 551.9 868.2 631 868.2 631s-43 263.4-42.5 376.3c.4 76.2 93.3 14.8 99.4 1.4 13.4-29.5 111.1-346.9 111.1-346.9s5.2-74.5-53.1-90.5z" class="st0"/><path d="m939.6 1013.2 111-360c-2.5-89.5-90.1-102.8-90.1-102.8-82.4-7.9-100.4 63-100.4 63l-39.8 360.4s-13.5 81 33.3 82.2c.1-.1 78.6 8.4 86-42.8z" class="st0"/><path d="m930.1 1306.2 16.3-314.9c-37.8-65.8-126-17.6-126-17.6-15.7 66.1 10.6 238.4 27.1 332.5h82.6zM1119.4 337.6v139.1h147.1s-36.2-55.1-18.1-139.1h-129zM1115.9 339.5s-25-10.9-53.4-72.8c0 0-61.5-73.2-17.9-156.4 0 0 25.8-70.3 150.6-50.6 0 0 11.2 188.4-79.3 279.8z" class="st0"/><path d="m1269.6 377.1 8.3-21.8 23-81.2c2.9-10.2 3-23.8 1.2-34.3-2-11.4-3.3-23.3-.3-35.4 14.5-58.4-15.4-91.5-15.4-91.5-33-55-114-56.9-114-56.9-100.4 2.6-111.1 99.5-111.1 99.5-17.8 64.2 32.3 119.1 32.4 119.3 4 4.4 1.4 25.6 2.5 31.6 4.7 25.9 29 42.3 50.6 53.7 23.7 12.5 52.5 26 79.2 29 10.1 1.4 38.8.5 43.6-12zM1019.7 1033.5c.3 14.3-21.4 163.9-12.3 165.8.1 0 248.2 57.2 380.6 0l.5-154.2 70.2-429.3s24.2-64.5-24.2-96.8L1250 432.3l12.4 37.4-26.7 75.9L1120 432.4 898.2 563.5l37.1 123.2 68.7 227.2c0-.1 19.5 81.8 15.7 119.6z" class="st0"/><path d="M1219.9 457.8s-81.4-31.6-100.5-63.1l-24 45.8 85.8 82.3 38.8-63.5M1216.7 108.2c15.9-4.5 34.3-7.6 50.8-4.6s25.7 25.1 42.7 13.9c6.9-4.5 20-14.5 24.3-21.3 6.6-10.5-7.7-30.3-17.5-33.8-11-4-9.9-7.6-15.3-18.4-4.6-9.2-5.7-17.6-17-20.7-10.8-3-21.2 4.2-31.8 2.7-18.2-2.7-21.6-22.3-40.7-25.7-21.1-3.7-32.3 31.7-53.2 30.3-18.1-1.2-29.8-17-49.4-13.2-20.2 3.9-25.4 25.6-43.7 31.9-18.7 6.4-39.3 3-44.9 27.2-4.5 19.7 4.1 33.1-9.9 49.9-15.5 18.7-9.9 38.1-1.6 57.8 14.9 35.4 29.7 70.3 52.8 101.3 6.4 8.6 13.5 17 21.3 24.4 1.3 1.3 7.9 5.5 8.2 7.2 0 0-13.3-75.3 26.4-65l6.9-.4s-13.7-44.1 14.7-65.9c-13.4-17.3-2.5-51.8.2-56.7 13.8-24.9 53.4-14.3 76.7-20.9z" class="st0"/><path d="M1108.7 284.4c-3.6 3-8.2 4.9-14.1 5-16 .5-30-13.8-31.2-32s10.7-33.3 26.7-33.8c7.6-.2 14.7 2.9 20.2 8.1 8.1 7.7 9 22.5 7.7 32.8-1.1 8.2-4 15.3-9.3 19.9zM953.9 1306.2h216.2l11.7-505.5-98.6-346.5-185 109.3 95.9 429.1-40.2 313.6zM1444.4 1306.2l-16.5-346.7 37-367c13.1-66.2-50.9-83.1-50.9-83.1l-112.3-52.8-15.7 334.8 38.5 514.8h119.9zM1288.6 461.3s-7.5-28.9-44.2-53.4l4.8 99.8s20.4-51 39.4-46.4zM502.1 1306.2c20.1-105.4 76.7-328.8 76.7-328.8s-82.5-53.3-97.9-28.3c-13.1 21.2-24.9 250.2-22.4 357l43.6.1z" class="st0"/><path d="m517.3 617.3-24.9 8.1S453 932 486.3 1000.5c33.4 68.5 71.8-.3 84.3-8.1s92.3-355 92.3-355l-145.6-20.1z" class="st0"/><path d="m463.7 964.9 15.9-384.1c18-94.3 114.6-66.2 114.6-66.2 78.3 20.4 74.5 108.1 74.5 108.1l-67.3 368s-14.1 56.2-86.5 56.3c-.1-.1-53.5-7.4-51.2-82.1z" class="st0"/><path d="M532 1306.2c37.7-134.9 62.7-302.7 62.7-302.7 9.6-63.9-123.6-66.7-123.6-66.7-19.5 76.7-22.8 270.9-23.2 369.3H532v.1z" class="st0"/><path d="m564.5 1045.2-70.2-429.3s-24.2-64.5 24.2-96.8L703 432.4h130l221.8 131.1-145.4 481.7H564.5zM956.7 1306.2c-12.4-181.4-47.2-261-47.2-261h-345l.5 261h391.7z" class="st0"/><path d="M953 1306.2c-15.8-50.7-61.7-87.6-116.1-88-55-.4-101.9 36.6-118 88H953z" class="st0"/><path d="M847.2 1306.2c-11.2-1.5-21.5-1.4-30.9 0h30.9zm-69.6 0c-16.7-41.5-54.4-72.3-100.8-77-54.1-5.5-88.3 27.7-103.4 77h204.2zM1041.7 1306.2h56.6c17.8-108.3 33.1-277.5 25.1-296.2-17.2-40.1-97.1-3-97.1-3 18.1 181.8 17.9 242.2 15.4 299.2z" class="st0"/><path d="M969.9 571.3c85.6-19.5 114.9 59.6 114.9 59.6s43 263.4 42.5 376.3c-.4 76.2-93.3 14.8-99.4 1.4-13.5-29.6-111.1-346.8-111.1-346.8s-5.2-74.5 53.1-90.5z" class="st0"/><path d="m1013.4 1013.2-111-360c2.5-89.5 90.1-102.8 90.1-102.8 82.4-7.9 100.4 63 100.4 63l39.8 360.4s13.5 81-33.3 82.2c0-.1-78.6 8.4-86-42.8z" class="st0"/><path d="M1105.6 1306.2c16.5-94.1 42.8-266.4 27.1-332.5 0 0-88.2-48.1-126 17.6l16.3 314.9h82.6zM833.7 337.6v139.1H686.6s36.2-55.1 18.1-139.1h129zM837.2 339.5s25-10.9 53.4-72.8c0 0 61.5-73.2 17.9-156.4 0 0-25.8-70.3-150.6-50.6 0 0-11.3 188.4 79.3 279.8z" class="st0"/><path d="m683.4 377.1-8.3-21.8-23-81.1c-2.9-10.2-3-23.8-1.2-34.3 2-11.4 3.3-23.3.3-35.4-14.5-58.3 15.4-91.5 15.4-91.5 32.9-55 114.1-56.9 114.1-56.9 100.4 2.6 111.1 99.5 111.1 99.5 17.8 64.2-32.3 119.1-32.4 119.2-4 4.4-1.4 25.6-2.5 31.7-4.7 25.9-29 42.3-50.6 53.7-23.7 12.5-52.5 26-79.2 29-10.2 1.3-38.9.4-43.7-12.1zM733.1 457.8s81.4-31.6 100.5-63.1l24 45.8-85.8 82.3-38.8-63.5" class="st0"/><path d="M619.8 37.2c10.7 26.2 34.1 34.1 34.1 34.1-2.8 8.8-21.4 15.5-21.4 15.5 16.5 28.2 53.1 16.9 53.1 16.9 16.5-3 34.9.1 50.8 4.6 23.2 6.6 62.9-4 76.7 20.8 2.7 4.9 13.6 39.5.2 56.7 28.4 21.8 14.7 65.9 14.7 65.9l6.9.4c39.8-10.3 26.4 64.9 26.4 65 .3-1.7 6.9-5.9 8.2-7.2 7.8-7.5 24.2-34.2 29.3-43.7 28-51.3 25.4-53.9 32.9-84.2 5.1-20.7 2.9-76.7-27.2-104.9 0 0 9.4-36.9-48.9-59.2 0 0-124.3-31.2-184.5 9.9-.1-.2-27 13.3-51.3 9.4z" class="st0"/><path d="M844.4 284.4c3.6 3 8.2 4.9 14.1 5 16 .5 30-13.8 31.2-32S879 224.1 863 223.6c-7.6-.2-14.7 2.9-20.2 8.1-8 7.7-9 22.5-7.6 32.8 1 8.2 3.8 15.3 9.2 19.9zM999.2 1306.2l-40.3-313.6 95.9-429.1-184.9-109.3-98.7 346.5 11.8 505.5h216.2zM525.1 959.5l-16.5 346.7h120L667 791.4l-15.7-334.7L539 509.5s-63.9 16.9-50.9 83.1l37 366.9zM664.4 461.3s7.5-29 44.2-53.4l-4.8 99.8s-20.4-51-39.4-46.4z" class="st0"/></svg>