<svg xmlns="http://www.w3.org/2000/svg" xml:space="preserve" id="Layer_1" x="0" y="0" style="enable-background:new 0 0 1905.1 1306.2" version="1.1" viewBox="0 0 1905.1 1306.2"><style>.st0{stroke:#dedede;stroke-miterlimit:10}.st0,.st1{fill:#dedede}</style><path id="B_1_" d="M573.7 1316.2c0 34.1-93.1 61.7-207.9 61.7s-207.9-27.6-207.9-61.7 93.1-61.7 207.9-61.7 207.9 27.6 207.9 61.7z" class="st0"/><path id="O" d="M573.7 1316.2c0 32.2-87.8 58.2-196.2 58.2s-196.2-26.1-196.2-58.2c0-32.2 87.9-58.2 196.2-58.2 108.3-.1 196.2 26 196.2 58.2z" class="st0"/><path d="M430 1313.5c-22.6-6.9-58.1-7.7-81.6-8.2-10.3-.2-17.9-1.5-20.7-3.5-3-2.1-.4-4.9 6.9-7.4 6.4-2.2 18.5-3.5 33-3.6 16-.1 27.4 1.3 29.9 2 5 2.5 15.9 3.4 24.6 2 9-1.4 12.3-4.8 7.5-7.4-9.6-5.3-34.3-6.9-46.4-7.3v-4.9c0-3-8.3-5.5-18.4-5.5-10.2 0-18.4 2.4-18.4 5.5v5.4c-16.1 1.1-29.9 3.4-39.5 6.6-16.7 5.7-21.6 12.7-13.1 18.8 8.2 5.9 27.7 9.7 52.1 10.2 19 .4 44.9 1 57.7 4.9 6.8 2.1 10.2 4.9 9.7 8s-5.1 6.1-12.6 8.2c-14.1 4-36.9 5.5-56.8 3.6-8.8-.8-24.2-3.1-27.8-8.7-1.9-3-11.5-4.9-21.5-4.4-10 .6-16.6 3.4-14.7 6.4 5.2 8.2 24.4 14.5 52.8 17.2 4.5.4 9.1.7 13.7 1v5c0 3 8.3 5.5 18.4 5.5 10.2 0 18.4-2.5 18.4-5.5v-5.4c16.1-1.1 31.1-3.4 43-6.8 14.3-4.1 22.8-9.6 23.8-15.5 1-6.2-6.1-12-20-16.2z" class="st0"/><path d="M442.7 1313.5c-22.6-6.9-58.1-7.7-81.6-8.2-10.3-.2-17.9-1.5-20.7-3.5-3-2.1-.4-4.9 6.9-7.4 6.5-2.2 18.5-3.5 33-3.6 16-.1 27.4 1.3 29.9 2 5 2.5 15.9 3.4 24.6 2 9-1.4 12.3-4.8 7.5-7.4-9.6-5.3-34.3-6.9-46.4-7.3v-4.9c0-3-8.3-5.5-18.5-5.5s-18.4 2.4-18.4 5.5v5.4c-16.1 1.1-29.9 3.4-39.6 6.6-16.6 5.7-21.6 12.7-13.1 18.8 8.2 5.9 27.7 9.7 52.1 10.2 19 .4 44.9 1 57.7 4.9 6.8 2.1 10.2 4.9 9.7 8s-5.1 6.1-12.6 8.2c-14.1 4-36.9 5.5-56.8 3.6-8.8-.8-24.2-3.1-27.8-8.7-1.9-3-11.5-4.9-21.5-4.4-10 .6-16.6 3.4-14.7 6.4 5.2 8.2 24.4 14.5 52.8 17.2 4.5.4 9.1.7 13.7 1v5c0 3 8.3 5.5 18.4 5.5 10.2 0 18.5-2.5 18.5-5.5v-5.4c16.1-1.1 31.1-3.4 43-6.8 14.3-4.1 22.8-9.6 23.8-15.5 1.2-6.2-5.9-12-19.9-16.2z" class="st0"/><path d="M638.1 1239.4c0 44.6-121.9 80.8-272.3 80.8S93.5 1284 93.5 1239.4c0-44.7 121.9-80.8 272.3-80.8s272.3 36.2 272.3 80.8z" class="st0"/><path id="B_2_" d="M573.7 1239.4c0 34.1-93.1 61.7-207.9 61.7s-207.9-27.6-207.9-61.7 93.1-61.7 207.9-61.7 207.9 27.6 207.9 61.7z" class="st0"/><path d="M573.7 1239.4c0 32.2-87.9 58.2-196.2 58.2-108.4 0-196.2-26.1-196.2-58.2 0-32.2 87.9-58.2 196.2-58.2s196.2 26.1 196.2 58.2z" class="st0"/><path d="M430 1236.7c-22.6-6.9-58.1-7.7-81.6-8.2-10.3-.2-17.9-1.5-20.7-3.5-3-2.1-.4-4.9 6.9-7.4 6.4-2.2 18.5-3.5 33-3.6 16-.1 27.4 1.3 29.9 2 5 2.5 15.9 3.4 24.6 2 9-1.4 12.3-4.8 7.5-7.4-9.6-5.3-34.3-6.9-46.4-7.3v-4.9c0-3-8.3-5.5-18.5-5.5s-18.4 2.4-18.4 5.5v5.4c-16.1 1.1-29.9 3.4-39.5 6.6-16.7 5.7-21.6 12.7-13.1 18.8 8.2 5.9 27.7 9.7 52.1 10.2 19 .4 44.9 1 57.7 4.9 6.8 2.1 10.2 4.9 9.7 8s-5.1 6.1-12.6 8.2c-14.1 4-36.9 5.5-56.8 3.6-8.8-.8-24.2-3.1-27.8-8.8-1.9-3-11.5-4.9-21.5-4.4-10 .6-16.6 3.4-14.7 6.4 5.2 8.2 24.5 14.5 52.8 17.2 4.5.4 9.1.7 13.7 1v5c0 3 8.3 5.5 18.4 5.5 10.2 0 18.5-2.5 18.5-5.5v-5.4c16.1-1.1 31.1-3.4 43-6.8 14.3-4.1 22.8-9.6 23.8-15.5 1-6.1-6.1-11.8-20-16.1z" class="st0"/><path d="M442.7 1236.7c-22.6-6.9-58.1-7.7-81.6-8.2-10.3-.2-17.9-1.5-20.7-3.5-3-2.1-.4-4.9 6.9-7.4 6.5-2.2 18.5-3.5 33-3.6 16-.1 27.4 1.3 29.9 2 5 2.5 15.9 3.4 24.6 2 9-1.4 12.3-4.8 7.5-7.4-9.6-5.3-34.3-6.9-46.4-7.3v-4.9c0-3-8.3-5.5-18.4-5.5s-18.5 2.4-18.5 5.5v5.4c-16.1 1.1-29.9 3.4-39.6 6.6-16.6 5.7-21.6 12.7-13.1 18.8 8.2 5.9 27.7 9.7 52.1 10.2 19 .4 44.9 1 57.7 4.9 6.8 2.1 10.2 4.9 9.7 8s-5.1 6.1-12.6 8.2c-14.1 4-36.9 5.5-56.8 3.6-8.8-.8-24.2-3.1-27.8-8.8-1.9-3-11.5-4.9-21.5-4.4-10 .6-16.6 3.4-14.7 6.4 5.2 8.2 24.5 14.5 52.8 17.2 4.5.4 9.1.7 13.7 1v5c0 3 8.3 5.5 18.5 5.5s18.4-2.5 18.4-5.5v-5.4c16.1-1.1 31.1-3.4 43-6.8 14.3-4.1 22.8-9.6 23.8-15.5 1.2-6.1-5.9-11.8-19.9-16.1zM164.8 1255.3l-56.6 10.4c-9.6-8.2-14.8-17.1-14.8-26.3 0-.7 0-1.4.1-2l70.5-12.9c-4.1 4.8-6.2 9.8-6.2 15 0 5.4 2.4 10.8 7 15.8z" class="st0"/><path id="V" d="m560.1 1182.8-56.6 10.4c-25.9-6.8-57.7-11.7-92.7-14l70.5-12.9c29.7 4 56.3 9.7 78.8 16.5z" class="st0"/><path id="E_1_" d="m198.7 1276.2-54.9 10.1c-8.6-3.6-16.2-7.4-22.8-11.3l55.1-10.1c6.2 4 13.8 7.8 22.6 11.3z" class="st0"/><path id="AT" d="m606.2 1201.5-54.9 10.1c-6.7-4-14.9-7.7-24.3-11.1l55.1-10.1c9 3.4 17.1 7.1 24.1 11.1z" class="st0"/><path d="m320.7 1299.7-70.6 12.9c-24.3-3.4-46.6-7.8-66.3-13.1l57.8-10.6c23.2 5.1 49.9 8.9 79.1 10.8zm317.4-60.3c0 .7 0 1.4-.1 2l-70.9 13c4.3-4.8 6.6-9.8 6.6-15.1 0-3.7-1.2-7.3-3.4-10.8l58.1-10.6c6.3 6.9 9.7 14.1 9.7 21.5z" class="st0"/><path id="W" d="M365.7 1320.2c-150.4 0-272.3-36.2-272.3-80.8v63.7c0 44.6 121.9 80.8 272.3 80.8s272.3-36.2 272.3-80.8l-1-57.1c-11.2 41.6-128.3 74.2-271.3 74.2z" class="st0"/><path id="L_1_" d="M471.4 1377.6c19.9-2.5 38.5-5.7 55.7-9.4v-63.7c-17.1 3.7-35.8 6.9-55.7 9.4v63.7z" class="st0"/><path id="U_1_" d="M587 1286.5c-11.6 4.8-25 9.2-39.8 13.2v63.7c14.8-3.9 28.2-8.4 39.8-13.2v-63.7z" class="st0"/><path id="X" d="M638.1 1161.5c0 44.6-121.9 80.8-272.3 80.8s-272.3-36.2-272.3-80.8c0-44.7 121.9-80.8 272.3-80.8s272.3 36.1 272.3 80.8z" class="st0"/><path id="B_3_" d="M573.7 1161.5c0 34.1-93.1 61.7-207.9 61.7s-207.9-27.6-207.9-61.7 93.1-61.7 207.9-61.7 207.9 27.6 207.9 61.7z" class="st0"/><path id="O_1_" d="M573.7 1161.5c0 32.2-87.8 58.2-196.2 58.2s-196.2-26.1-196.2-58.2c0-32.2 87.9-58.2 196.2-58.2 108.3-.1 196.2 26 196.2 58.2z" class="st0"/><path d="M430 1158.7c-22.6-6.9-58.1-7.7-81.6-8.2-10.3-.2-17.9-1.5-20.7-3.5-3-2.1-.4-4.9 6.9-7.4 6.4-2.2 18.5-3.5 33-3.6 16-.1 27.4 1.3 29.9 2 5 2.5 15.9 3.4 24.6 2 9-1.4 12.3-4.8 7.5-7.4-9.6-5.3-34.3-6.9-46.4-7.3v-4.9c0-3-8.3-5.5-18.4-5.5-10.2 0-18.4 2.5-18.4 5.5v5.4c-16.1 1.1-29.9 3.3-39.5 6.6-16.7 5.7-21.6 12.7-13.1 18.8 8.2 5.9 27.7 9.7 52.1 10.2 19 .4 44.9 1 57.7 4.9 6.8 2.1 10.2 4.9 9.7 8s-5.1 6.1-12.6 8.2c-14.1 4-36.9 5.5-56.8 3.6-8.8-.8-24.2-3.1-27.8-8.8-1.9-3-11.5-4.9-21.5-4.4-10 .6-16.6 3.4-14.7 6.4 5.2 8.2 24.4 14.5 52.8 17.2 4.5.4 9.1.7 13.7 1v5c0 3 8.3 5.5 18.4 5.5 10.2 0 18.4-2.5 18.4-5.5v-5.4c16.1-1.1 31.1-3.4 43-6.7 14.3-4.1 22.8-9.6 23.8-15.5 1-6.1-6.1-11.9-20-16.2z" class="st0"/><path d="M442.7 1158.7c-22.6-6.9-58.1-7.7-81.6-8.2-10.3-.2-17.9-1.5-20.7-3.5-3-2.1-.4-4.9 6.9-7.4 6.5-2.2 18.5-3.5 33-3.6 16-.1 27.4 1.3 29.9 2 5 2.5 15.9 3.4 24.6 2 9-1.4 12.3-4.8 7.5-7.4-9.6-5.3-34.3-6.9-46.4-7.3v-4.9c0-3-8.3-5.5-18.5-5.5s-18.4 2.4-18.4 5.5v5.4c-16.1 1.1-29.9 3.3-39.6 6.6-16.6 5.7-21.6 12.7-13.1 18.8 8.2 5.9 27.7 9.7 52.1 10.2 19 .4 44.9 1 57.7 4.9 6.8 2.1 10.2 4.9 9.7 8s-5.1 6.1-12.6 8.2c-14.1 4-36.9 5.5-56.8 3.6-8.8-.8-24.2-3.1-27.8-8.8-1.9-3-11.5-4.9-21.5-4.4-10 .6-16.6 3.4-14.7 6.4 5.2 8.2 24.4 14.5 52.8 17.2 4.5.4 9.1.7 13.7 1v5c0 3 8.3 5.5 18.4 5.5 10.2 0 18.5-2.5 18.5-5.5v-5.4c16.1-1.1 31.1-3.4 43-6.7 14.3-4.1 22.8-9.6 23.8-15.5 1.2-6.1-5.9-11.9-19.9-16.2z" class="st0"/><path id="D_1_" d="m164.8 1177.4-56.6 10.4c-9.6-8.2-14.8-17.1-14.8-26.3 0-.7 0-1.4.1-2l70.5-12.9c-4.1 4.8-6.2 9.8-6.2 15 0 5.4 2.4 10.7 7 15.8z" class="st0"/><path d="m560.1 1104.9-56.6 10.4c-25.9-6.8-57.7-11.7-92.7-14l70.5-12.9c29.7 4 56.3 9.6 78.8 16.5z" class="st0"/><path id="Q_1_" d="m198.7 1198.3-54.9 10.1c-8.6-3.6-16.2-7.4-22.8-11.3l55.1-10.1c6.2 3.9 13.8 7.7 22.6 11.3z" class="st0"/><path id="F_2_" d="m606.2 1123.5-54.9 10.1c-6.8-4-14.9-7.7-24.3-11.1l55.1-10.1c9 3.5 17.1 7.2 24.1 11.1z" class="st0"/><path id="G_2_" d="m320.7 1221.7-70.6 12.9c-24.3-3.4-46.6-7.8-66.3-13.1l57.8-10.6c23.2 5.2 49.9 8.9 79.1 10.8z" class="st0"/><path id="Y" d="M638.1 1161.5c0 .7-.1 1.4-.1 2l-70.9 13c4.3-4.8 6.6-9.8 6.6-15.1 0-3.7-1.2-7.3-3.4-10.8l58.1-10.7c6.3 7 9.7 14.1 9.7 21.6z" class="st0"/><path id="S_1_" d="M365.7 1242.3c-150.4 0-272.3-36.2-272.3-80.8v63.7c0 44.6 121.9 80.8 272.3 80.8s272.3-36.2 272.3-80.8l-1-57.1c-11.2 41.5-128.3 74.2-271.3 74.2z" class="st0"/><path id="L_2_" d="M471.4 1299.7c19.9-2.5 38.5-5.7 55.7-9.4v-63.7c-17.1 3.7-35.8 6.9-55.7 9.4v63.7z" class="st0"/><path id="U_2_" d="M587 1208.6c-11.6 4.8-25 9.2-39.8 13.2v63.7c14.8-3.9 28.2-8.4 39.8-13.2v-63.7z" class="st0"/><path d="M638.1 1083.4c0 44.6-121.9 80.8-272.3 80.8S93.4 1128 93.4 1083.4s121.9-80.8 272.3-80.8 272.4 36.1 272.4 80.8z" class="st0"/><path id="B_4_" d="M573.7 1083.4c0 34.1-93.1 61.7-207.9 61.7s-207.9-27.6-207.9-61.7 93.1-61.7 207.9-61.7 207.9 27.6 207.9 61.7z" class="st0"/><path id="C_1_" d="M573.7 1083.4c0 32.2-87.8 58.2-196.2 58.2s-196.2-26.1-196.2-58.2c0-32.2 87.9-58.3 196.2-58.3s196.2 26.1 196.2 58.3z" class="st0"/><path d="M430 1080.7c-22.6-6.9-58.1-7.7-81.6-8.2-10.3-.2-17.9-1.5-20.7-3.5-3-2.1-.4-4.9 6.9-7.4 6.4-2.2 18.5-3.5 33-3.6 16-.1 27.4 1.3 29.9 2 5 2.5 15.9 3.4 24.6 2 9-1.4 12.3-4.8 7.5-7.4-9.6-5.3-34.3-6.9-46.4-7.3v-4.9c0-3-8.3-5.5-18.4-5.5-10.2 0-18.4 2.5-18.4 5.5v5.4c-16.1 1.1-29.9 3.3-39.5 6.6-16.7 5.7-21.6 12.7-13.1 18.8 8.2 5.9 27.7 9.7 52.1 10.2 19 .4 44.9 1 57.7 4.9 6.8 2.1 10.2 4.9 9.7 8s-5.1 6.1-12.6 8.2c-14.1 4-36.9 5.5-56.8 3.6-8.8-.8-24.2-3.1-27.8-8.8-1.9-3-11.5-4.9-21.5-4.4-10 .6-16.6 3.4-14.7 6.4 5.2 8.2 24.4 14.5 52.8 17.2 4.5.4 9.1.8 13.7 1v5c0 3 8.3 5.5 18.4 5.5 10.2 0 18.4-2.5 18.4-5.5v-5.4c16.1-1.1 31.1-3.4 43-6.8 14.3-4.1 22.8-9.6 23.8-15.5 1-6.1-6.1-11.9-20-16.1z" class="st0"/><path d="M442.7 1080.7c-22.6-6.9-58.1-7.7-81.6-8.2-10.3-.2-17.9-1.5-20.7-3.5-3-2.1-.4-4.9 6.9-7.4 6.5-2.2 18.5-3.5 33-3.6 16-.1 27.4 1.3 29.9 2 5 2.5 15.9 3.4 24.6 2 9-1.4 12.3-4.8 7.5-7.4-9.6-5.3-34.3-6.9-46.4-7.3v-4.9c0-3-8.3-5.5-18.5-5.5s-18.4 2.5-18.4 5.5v5.4c-16.1 1.1-29.9 3.3-39.6 6.6-16.6 5.7-21.6 12.7-13.1 18.8 8.2 5.9 27.7 9.7 52.1 10.2 19 .4 44.9 1 57.7 4.9 6.8 2.1 10.2 4.9 9.7 8s-5.1 6.1-12.6 8.2c-14.1 4-36.9 5.5-56.8 3.6-8.8-.8-24.2-3.1-27.8-8.8-1.9-3-11.5-4.9-21.5-4.4-10 .6-16.6 3.4-14.7 6.4 5.2 8.2 24.4 14.5 52.8 17.2 4.5.4 9.1.8 13.7 1v5c0 3 8.3 5.5 18.4 5.5 10.2 0 18.5-2.5 18.5-5.5v-5.4c16.1-1.1 31.1-3.4 43-6.8 14.3-4.1 22.8-9.6 23.8-15.5 1.2-6.1-5.9-11.9-19.9-16.1z" class="st0"/><path id="P_1_" d="m164.8 1099.3-56.6 10.4c-9.6-8.3-14.8-17.1-14.8-26.3 0-.7 0-1.4.1-2l70.5-12.9c-4.1 4.8-6.2 9.8-6.2 15 0 5.4 2.4 10.7 7 15.8z" class="st0"/><path id="V_1_" d="m560.1 1026.8-56.6 10.4c-25.9-6.8-57.7-11.7-92.7-14l70.5-12.9c29.7 4 56.3 9.7 78.8 16.5z" class="st0"/><path id="Q_2_" d="m198.7 1120.2-54.9 10.1c-8.6-3.6-16.2-7.4-22.8-11.3l55.1-10.1c6.2 3.9 13.8 7.7 22.6 11.3z" class="st0"/><path id="F_3_" d="m606.2 1045.4-54.9 10.1c-6.8-4-14.9-7.7-24.3-11.1l55.1-10.1c9 3.5 17.1 7.2 24.1 11.1z" class="st0"/><path d="m320.7 1143.7-70.6 12.9c-24.3-3.4-46.6-7.8-66.3-13.1l57.8-10.6c23.2 5.1 49.9 8.8 79.1 10.8z" class="st0"/><path id="Z" d="M638.1 1083.4c0 .7-.1 1.4-.1 2l-70.9 13c4.3-4.8 6.6-9.8 6.6-15.1 0-3.7-1.2-7.3-3.4-10.8l58.1-10.7c6.3 7 9.7 14.2 9.7 21.6z" class="st0"/><path id="a" d="M365.7 1164.2c-150.4 0-272.3-36.2-272.3-80.8v63.7c0 44.7 121.9 80.8 272.3 80.8s272.3-36.2 272.3-80.8l-1-57.1c-11.2 41.5-128.3 74.2-271.3 74.2z" class="st0"/><path id="L_3_" d="M471.4 1221.6c19.9-2.5 38.5-5.7 55.7-9.4v-63.7c-17.1 3.7-35.8 6.9-55.7 9.4v63.7z" class="st0"/><path id="c" d="M587 1130.5c-11.6 4.8-25 9.2-39.8 13.1v63.7c14.8-3.9 28.2-8.4 39.8-13.2v-63.6z" class="st0"/><path id="d" d="M638.1 1006.6c0 44.7-121.9 80.8-272.3 80.8s-272.3-36.2-272.3-80.8 121.9-80.8 272.3-80.8 272.3 36.2 272.3 80.8z" class="st0"/><path id="B_5_" d="M573.7 1006.6c0 34.1-93.1 61.7-207.9 61.7s-207.9-27.6-207.9-61.7 93.1-61.7 207.9-61.7 207.9 27.6 207.9 61.7z" class="st0"/><path d="M573.7 1006.6c0 32.2-87.9 58.3-196.2 58.3-108.4 0-196.2-26.1-196.2-58.3s87.9-58.2 196.2-58.2 196.2 26.1 196.2 58.2z" class="st0"/><path d="M430 1003.9c-22.6-7-58.1-7.7-81.6-8.2-10.3-.2-17.9-1.5-20.7-3.5-3-2.1-.4-4.9 6.9-7.4 6.4-2.2 18.5-3.5 33-3.6 16-.1 27.4 1.3 29.9 2 5 2.5 15.9 3.4 24.6 2 9-1.4 12.3-4.8 7.5-7.4-9.6-5.3-34.3-6.9-46.4-7.3v-4.9c0-3-8.3-5.5-18.5-5.5s-18.4 2.4-18.4 5.5v5.4c-16.1 1.1-29.9 3.4-39.5 6.6-16.7 5.7-21.6 12.7-13.1 18.8 8.2 5.9 27.7 9.7 52.1 10.2 19 .4 44.9 1 57.7 4.9 6.8 2.1 10.2 4.9 9.7 8s-5.1 6.1-12.6 8.2c-14.1 4-36.9 5.5-56.8 3.6-8.8-.8-24.2-3.1-27.8-8.7-1.9-3-11.5-4.9-21.5-4.4-10 .6-16.6 3.4-14.7 6.4 5.2 8.2 24.5 14.5 52.8 17.2 4.5.4 9.1.7 13.7 1v5c0 3 8.3 5.5 18.4 5.5 10.2 0 18.5-2.4 18.5-5.5v-5.4c16.1-1.1 31.1-3.4 43-6.8 14.3-4.1 22.8-9.6 23.8-15.5 1-6.2-6.1-11.9-20-16.2z" class="st0"/><path d="M442.7 1003.9c-22.6-6.9-58.1-7.7-81.6-8.2-10.3-.2-17.9-1.5-20.7-3.5-3-2.1-.4-4.9 6.9-7.4 6.5-2.2 18.5-3.5 33-3.6 16-.1 27.4 1.3 29.9 2 5 2.5 15.9 3.4 24.6 2 9-1.4 12.3-4.8 7.5-7.4-9.6-5.3-34.3-6.9-46.4-7.3v-4.9c0-3-8.3-5.5-18.4-5.5s-18.5 2.4-18.5 5.5v5.4c-16.1 1.1-29.9 3.4-39.6 6.6-16.6 5.7-21.6 12.7-13.1 18.8 8.2 5.9 27.7 9.7 52.1 10.2 19 .4 44.9 1 57.7 4.9 6.8 2.1 10.2 4.9 9.7 8s-5.1 6.1-12.6 8.2c-14.1 4-36.9 5.5-56.8 3.6-8.8-.8-24.2-3.1-27.8-8.7-1.9-3-11.5-4.9-21.5-4.4-10 .6-16.6 3.4-14.7 6.4 5.2 8.2 24.5 14.5 52.8 17.2 4.5.4 9.1.7 13.7 1v5c0 3 8.3 5.5 18.5 5.5s18.4-2.4 18.4-5.5v-5.4c16.1-1.1 31.1-3.4 43-6.8 14.3-4.1 22.8-9.6 23.8-15.5 1.2-6.2-5.9-11.9-19.9-16.2zM164.8 1022.5l-56.6 10.4c-9.6-8.3-14.8-17.1-14.8-26.3 0-.7 0-1.4.1-2l70.5-12.9c-4.1 4.8-6.2 9.8-6.2 15 0 5.4 2.4 10.8 7 15.8z" class="st0"/><path id="e" d="m560.1 950-56.6 10.4c-25.9-6.8-57.7-11.8-92.7-14l70.5-12.9c29.7 4 56.3 9.7 78.8 16.5z" class="st0"/><path id="E_2_" d="m198.7 1043.4-54.9 10.1c-8.6-3.6-16.2-7.4-22.8-11.3l55.1-10.1c6.2 4 13.8 7.8 22.6 11.3z" class="st0"/><path id="AV" d="m606.2 968.7-54.9 10.1c-6.7-4-14.9-7.7-24.3-11.1l55.1-10.1c9 3.4 17.1 7.2 24.1 11.1z" class="st0"/><path id="G_3_" d="m320.7 1066.9-70.6 12.9c-24.3-3.4-46.6-7.8-66.3-13.1l57.8-10.6c23.2 5.2 49.9 8.9 79.1 10.8z" class="st0"/><path id="R_1_" d="m638.1 1006.6-.1 2.1-70.9 13c4.3-4.8 6.6-9.9 6.6-15.1 0-3.7-1.2-7.3-3.4-10.8l58.1-10.7c6.3 6.9 9.7 14.1 9.7 21.5z" class="st0"/><path d="M365.7 1087.5c-150.4 0-272.3-36.2-272.3-80.8v63.7c0 44.6 121.9 80.8 272.3 80.8S638 1115 638 1070.4l-1-57.1c-11.2 41.5-128.3 74.2-271.3 74.2z" class="st0"/><path id="L_4_" d="M471.4 1144.8c19.9-2.5 38.5-5.7 55.7-9.4v-63.7c-17.1 3.7-35.8 6.9-55.7 9.4v63.7z" class="st0"/><path id="f" d="M587 1053.7c-11.6 4.8-25 9.2-39.8 13.2v63.7c14.8-3.9 28.2-8.4 39.8-13.1v-63.8z" class="st0"/><path id="B_6_" d="M1204.7 1316.2c0 34.1-93.1 61.7-207.9 61.7-114.8 0-207.9-27.6-207.9-61.7s93.1-61.7 207.9-61.7c114.8 0 207.9 27.6 207.9 61.7z" class="st1"/><path id="o" d="M1204.7 1316.2c0 32.2-87.9 58.2-196.2 58.2-108.4 0-196.2-26.1-196.2-58.2 0-32.2 87.8-58.2 196.2-58.2 108.4-.1 196.2 26 196.2 58.2z" class="st1"/><path d="M1061 1313.5c-22.6-6.9-58.1-7.7-81.6-8.2-10.3-.2-17.9-1.5-20.7-3.5-3-2.1-.4-4.9 6.9-7.4 6.5-2.2 18.5-3.5 33-3.6 16-.1 27.4 1.3 29.9 2 5 2.5 15.9 3.4 24.6 2 9-1.4 12.3-4.8 7.5-7.4-9.6-5.3-34.3-6.9-46.4-7.3v-4.9c0-3-8.3-5.5-18.5-5.5s-18.4 2.4-18.4 5.5v5.4c-16.1 1.1-29.9 3.4-39.6 6.6-16.6 5.7-21.6 12.7-13.1 18.8 8.2 5.9 27.7 9.7 52.1 10.2 19 .4 44.9 1 57.7 4.9 6.8 2.1 10.2 4.9 9.7 8s-5.1 6.1-12.6 8.2c-14.1 4-36.9 5.5-56.8 3.6-8.9-.8-24.2-3.1-27.8-8.7-1.9-3-11.5-4.9-21.5-4.4-10 .6-16.6 3.4-14.7 6.4 5.2 8.2 24.4 14.5 52.8 17.2 4.5.4 9.1.7 13.7 1v5c0 3 8.3 5.5 18.4 5.5 10.2 0 18.5-2.5 18.5-5.5v-5.4c16.1-1.1 31.1-3.4 43-6.8 14.3-4.1 22.8-9.6 23.8-15.5 1.2-6.2-5.9-12-19.9-16.2z" class="st1"/><path d="M1073.7 1313.5c-22.6-6.9-58.1-7.7-81.6-8.2-10.3-.2-17.9-1.5-20.7-3.5-3-2.1-.4-4.9 6.9-7.4 6.5-2.2 18.5-3.5 33-3.6 16-.1 27.4 1.3 29.9 2 5 2.5 15.9 3.4 24.6 2 9-1.4 12.3-4.8 7.5-7.4-9.6-5.3-34.3-6.9-46.4-7.3v-4.9c0-3-8.3-5.5-18.4-5.5-10.2 0-18.4 2.4-18.4 5.5v5.4c-16.1 1.1-29.9 3.4-39.6 6.6-16.6 5.7-21.5 12.7-13.1 18.8 8.2 5.9 27.7 9.7 52.1 10.2 19 .4 44.9 1 57.7 4.9 6.8 2.1 10.2 4.9 9.7 8s-5.1 6.1-12.6 8.2c-14.1 4-36.9 5.5-56.8 3.6-8.9-.8-24.2-3.1-27.8-8.7-1.9-3-11.5-4.9-21.5-4.4-10 .6-16.6 3.4-14.7 6.4 5.2 8.2 24.4 14.5 52.8 17.2 4.5.4 9.1.7 13.7 1v5c0 3 8.3 5.5 18.4 5.5 10.2 0 18.4-2.5 18.4-5.5v-5.4c16.1-1.1 31.1-3.4 43-6.8 14.3-4.1 22.8-9.6 23.8-15.5 1.2-6.2-5.9-12-19.9-16.2z" class="st1"/><path id="s" d="M1269.1 1239.4c0 44.6-121.9 80.8-272.3 80.8s-272.3-36.2-272.3-80.8c0-44.7 121.9-80.8 272.3-80.8s272.3 36.2 272.3 80.8z" class="st1"/><path id="B_7_" d="M1204.7 1239.4c0 34.1-93.1 61.7-207.9 61.7-114.8 0-207.9-27.6-207.9-61.7s93.1-61.7 207.9-61.7c114.8 0 207.9 27.6 207.9 61.7z" class="st1"/><path id="t" d="M1204.7 1239.4c0 32.2-87.9 58.2-196.2 58.2-108.4 0-196.2-26.1-196.2-58.2 0-32.2 87.8-58.2 196.2-58.2s196.2 26.1 196.2 58.2z" class="st1"/><path id="u" d="M1061 1236.7c-22.6-6.9-58.1-7.7-81.6-8.2-10.3-.2-17.9-1.5-20.7-3.5-3-2.1-.4-4.9 6.9-7.4 6.4-2.2 18.5-3.5 33-3.6 16-.1 27.4 1.3 29.9 2 5 2.5 15.9 3.4 24.6 2 9-1.4 12.3-4.8 7.5-7.4-9.6-5.3-34.3-6.9-46.4-7.3v-4.9c0-3-8.3-5.5-18.5-5.5s-18.4 2.4-18.4 5.5v5.4c-16.1 1.1-29.9 3.4-39.6 6.6-16.6 5.7-21.6 12.7-13.1 18.8 8.2 5.9 27.7 9.7 52.1 10.2 19 .4 44.9 1 57.7 4.9 6.8 2.1 10.2 4.9 9.7 8s-5.1 6.1-12.6 8.2c-14.1 4-36.9 5.5-56.8 3.6-8.8-.8-24.2-3.1-27.8-8.8-1.9-3-11.5-4.9-21.5-4.4-10 .6-16.6 3.4-14.7 6.4 5.2 8.2 24.5 14.5 52.8 17.2 4.5.4 9.1.7 13.7 1v5c0 3 8.3 5.5 18.4 5.5 10.2 0 18.5-2.5 18.5-5.5v-5.4c16.1-1.1 31.1-3.4 43-6.8 14.3-4.1 22.8-9.6 23.8-15.5 1.2-6.1-5.9-11.8-19.9-16.1z" class="st1"/><path id="v" d="M1073.7 1236.7c-22.6-6.9-58.1-7.7-81.6-8.2-10.3-.2-17.9-1.5-20.7-3.5-3-2.1-.4-4.9 6.9-7.4 6.5-2.2 18.5-3.5 33-3.6 16-.1 27.4 1.3 29.9 2 5 2.5 15.9 3.4 24.6 2 9-1.4 12.3-4.8 7.5-7.4-9.6-5.3-34.3-6.9-46.4-7.3v-4.9c0-3-8.3-5.5-18.4-5.5-10.2 0-18.5 2.4-18.5 5.5v5.4c-16.1 1.1-29.9 3.4-39.6 6.6-16.6 5.7-21.5 12.7-13.1 18.8 8.2 5.9 27.7 9.7 52.1 10.2 19 .4 44.9 1 57.7 4.9 6.8 2.1 10.2 4.9 9.7 8s-5.1 6.1-12.6 8.2c-14.1 4-36.9 5.5-56.8 3.6-8.8-.8-24.2-3.1-27.8-8.8-1.9-3-11.5-4.9-21.5-4.4-10 .6-16.6 3.4-14.7 6.4 5.2 8.2 24.4 14.5 52.8 17.2 4.5.4 9.1.7 13.7 1v5c0 3 8.3 5.5 18.5 5.5s18.4-2.5 18.4-5.5v-5.4c16.1-1.1 31.1-3.4 43-6.8 14.3-4.1 22.8-9.6 23.8-15.5 1.2-6.1-5.9-11.8-19.9-16.1z" class="st1"/><path d="m795.9 1255.3-56.6 10.4c-9.6-8.2-14.8-17.1-14.8-26.3 0-.7 0-1.4.1-2l70.5-12.9c-4.1 4.8-6.2 9.8-6.2 15-.1 5.4 2.4 10.8 7 15.8z" class="st1"/><path id="w" d="m1191.2 1182.8-56.6 10.4c-25.9-6.8-57.7-11.7-92.7-14l70.5-12.9c29.6 4 56.2 9.7 78.8 16.5z" class="st1"/><path d="m829.8 1276.2-54.9 10.1c-8.6-3.6-16.2-7.4-22.8-11.3l55.1-10.1c6.2 4 13.7 7.8 22.6 11.3zm407.5-74.7-54.9 10.1c-6.7-4-14.9-7.7-24.3-11.1l55.1-10.1c9 3.4 17 7.1 24.1 11.1zM951.7 1299.7l-70.6 12.9c-24.3-3.4-46.6-7.8-66.3-13.1l57.8-10.6c23.2 5.1 50 8.9 79.1 10.8zm317.4-60.3c0 .7 0 1.4-.1 2l-70.9 13c4.3-4.8 6.6-9.8 6.6-15.1 0-3.7-1.2-7.3-3.4-10.8l58.1-10.6c6.4 6.9 9.7 14.1 9.7 21.5z" class="st1"/><path d="M996.8 1320.2c-150.4 0-272.3-36.2-272.3-80.8v63.7c0 44.6 121.9 80.8 272.3 80.8s272.3-36.2 272.3-80.8l-1-57.1c-11.2 41.6-128.4 74.2-271.3 74.2z" class="st1"/><path id="T_5_" d="M760.1 1343.1c11.7 6.1 26 11.7 42.4 16.7v-63.7c-16.4-5-30.7-10.6-42.4-16.7v63.7z" class="st1"/><path id="x" d="M904.5 1315.5c-14.8-1.6-29-3.6-42.4-5.8v63.7c13.5 2.3 27.6 4.2 42.4 5.8v-63.7z" class="st1"/><path id="K_8_" d="M840.4 1305.6c-7.3-1.5-14.4-3.2-21.2-4.9v63.7c6.8 1.7 13.9 3.4 21.2 4.9v-63.7z" class="st1"/><path id="L_5_" d="M1102.4 1377.6c19.9-2.5 38.5-5.7 55.7-9.4v-63.7c-17.1 3.7-35.8 6.9-55.7 9.4v63.7z" class="st1"/><path id="U_4_" d="M1218 1286.5c-11.6 4.8-25 9.2-39.8 13.2v63.7c14.8-3.9 28.2-8.4 39.8-13.2v-63.7z" class="st1"/><path id="X_1_" d="M1269.1 1161.5c0 44.6-121.9 80.8-272.3 80.8s-272.3-36.2-272.3-80.8c0-44.7 121.9-80.8 272.3-80.8s272.3 36.1 272.3 80.8z" class="st1"/><path id="g_1_" d="M1204.7 1161.5c0 34.1-93.1 61.7-207.9 61.7s-207.9-27.6-207.9-61.7 93.1-61.7 207.9-61.7c114.8-.1 207.9 27.6 207.9 61.7z" class="st1"/><path id="o_1_" d="M1204.7 1161.5c0 32.2-87.9 58.2-196.2 58.2-108.4 0-196.2-26.1-196.2-58.2 0-32.2 87.8-58.2 196.2-58.2 108.4-.1 196.2 26 196.2 58.2z" class="st1"/><path d="M1061 1158.7c-22.6-6.9-58.1-7.7-81.6-8.2-10.3-.2-17.9-1.5-20.7-3.5-3-2.1-.4-4.9 6.9-7.4 6.5-2.2 18.5-3.5 33-3.6 16-.1 27.4 1.3 29.9 2 5 2.5 15.9 3.4 24.6 2 9-1.4 12.3-4.8 7.5-7.4-9.6-5.3-34.3-6.9-46.4-7.3v-4.9c0-3-8.3-5.5-18.5-5.5s-18.4 2.5-18.4 5.5v5.4c-16.1 1.1-29.9 3.3-39.6 6.6-16.6 5.7-21.6 12.7-13.1 18.8 8.2 5.9 27.7 9.7 52.1 10.2 19 .4 44.9 1 57.7 4.9 6.8 2.1 10.2 4.9 9.7 8s-5.1 6.1-12.6 8.2c-14.1 4-36.9 5.5-56.8 3.6-8.9-.8-24.2-3.1-27.8-8.8-1.9-3-11.5-4.9-21.5-4.4-10 .6-16.6 3.4-14.7 6.4 5.2 8.2 24.4 14.5 52.8 17.2 4.5.4 9.1.7 13.7 1v5c0 3 8.3 5.5 18.4 5.5 10.2 0 18.5-2.5 18.5-5.5v-5.4c16.1-1.1 31.1-3.4 43-6.7 14.3-4.1 22.8-9.6 23.8-15.5 1.2-6.1-5.9-11.9-19.9-16.2z" class="st1"/><path d="M1073.7 1158.7c-22.6-6.9-58.1-7.7-81.6-8.2-10.3-.2-17.9-1.5-20.7-3.5-3-2.1-.4-4.9 6.9-7.4 6.5-2.2 18.5-3.5 33-3.6 16-.1 27.4 1.3 29.9 2 5 2.5 15.9 3.4 24.6 2 9-1.4 12.3-4.8 7.5-7.4-9.6-5.3-34.3-6.9-46.4-7.3v-4.9c0-3-8.3-5.5-18.4-5.5-10.2 0-18.4 2.4-18.4 5.5v5.4c-16.1 1.1-29.9 3.3-39.6 6.6-16.6 5.7-21.5 12.7-13.1 18.8 8.2 5.9 27.7 9.7 52.1 10.2 19 .4 44.9 1 57.7 4.9 6.8 2.1 10.2 4.9 9.7 8s-5.1 6.1-12.6 8.2c-14.1 4-36.9 5.5-56.8 3.6-8.9-.8-24.2-3.1-27.8-8.8-1.9-3-11.5-4.9-21.5-4.4-10 .6-16.6 3.4-14.7 6.4 5.2 8.2 24.4 14.5 52.8 17.2 4.5.4 9.1.7 13.7 1v5c0 3 8.3 5.5 18.4 5.5 10.2 0 18.4-2.5 18.4-5.5v-5.4c16.1-1.1 31.1-3.4 43-6.7 14.3-4.1 22.8-9.6 23.8-15.5 1.2-6.1-5.9-11.9-19.9-16.2z" class="st1"/><path id="i_1_" d="m795.9 1177.4-56.6 10.4c-9.6-8.2-14.8-17.1-14.8-26.3 0-.7 0-1.4.1-2l70.5-12.9c-4.1 4.8-6.2 9.8-6.2 15-.1 5.4 2.4 10.7 7 15.8z" class="st1"/><path d="m1191.2 1104.9-56.6 10.4c-25.9-6.8-57.7-11.7-92.7-14l70.5-12.9c29.6 4 56.2 9.6 78.8 16.5z" class="st1"/><path id="Q_4_" d="m829.7 1198.3-54.9 10.1c-8.6-3.6-16.2-7.4-22.8-11.3l55.1-10.1c6.2 3.9 13.8 7.7 22.6 11.3z" class="st1"/><path id="j_2_" d="m1237.2 1123.5-54.9 10.1c-6.7-4-14.9-7.7-24.3-11.1l55.1-10.1c9.1 3.5 17.1 7.2 24.1 11.1z" class="st1"/><path id="k_2_" d="m951.7 1221.7-70.6 12.9c-24.3-3.4-46.6-7.8-66.3-13.1l57.8-10.6c23.2 5.2 50 8.9 79.1 10.8z" class="st1"/><path d="M1269.1 1161.5c0 .7 0 1.4-.1 2l-71 13c4.3-4.8 6.6-9.8 6.6-15.1 0-3.7-1.2-7.3-3.4-10.8l58.1-10.7c6.5 7 9.8 14.1 9.8 21.6z" class="st1"/><path id="r_1_" d="M996.8 1242.3c-150.4 0-272.3-36.2-272.3-80.8v63.7c0 44.6 121.9 80.8 272.3 80.8s272.3-36.2 272.3-80.8l-1-57.1c-11.2 41.5-128.4 74.2-271.3 74.2z" class="st1"/><path id="T_6_" d="M760.1 1265.2c11.7 6.1 26 11.7 42.4 16.7v-63.7c-16.4-5-30.7-10.6-42.4-16.7v63.7z" class="st1"/><path id="x_1_" d="M904.5 1237.5c-14.8-1.6-29-3.6-42.4-5.8v63.7c13.5 2.3 27.6 4.2 42.4 5.8v-63.7z" class="st1"/><path id="K_9_" d="M840.4 1227.6c-7.3-1.5-14.4-3.2-21.2-4.9v63.7c6.8 1.7 13.9 3.4 21.2 4.9v-63.7z" class="st1"/><path id="n_1_" d="M1102.4 1299.7c19.9-2.5 38.5-5.7 55.6-9.4v-63.7c-17.1 3.7-35.8 6.9-55.6 9.4v63.7z" class="st1"/><path id="U_5_" d="M1218 1208.6c-11.6 4.8-25 9.2-39.8 13.2v63.7c14.8-3.9 28.2-8.4 39.8-13.2v-63.7z" class="st1"/><path id="A_2_" d="M1269.1 1083.4c0 44.6-121.9 80.8-272.3 80.8s-272.3-36.2-272.3-80.8 121.9-80.8 272.3-80.8 272.3 36.1 272.3 80.8z" class="st1"/><path id="B_8_" d="M1204.7 1083.4c0 34.1-93.1 61.7-207.9 61.7-114.8 0-207.9-27.6-207.9-61.7s93.1-61.7 207.9-61.7c114.8 0 207.9 27.6 207.9 61.7z" class="st1"/><path id="h_1_" d="M1204.7 1083.4c0 32.2-87.9 58.2-196.2 58.2-108.4 0-196.2-26.1-196.2-58.2 0-32.2 87.8-58.3 196.2-58.3s196.2 26.1 196.2 58.3z" class="st1"/><path d="M1061 1080.7c-22.6-6.9-58.1-7.7-81.6-8.2-10.3-.2-17.9-1.5-20.7-3.5-3-2.1-.4-4.9 6.9-7.4 6.5-2.2 18.5-3.5 33-3.6 16-.1 27.4 1.3 29.9 2 5 2.5 15.9 3.4 24.6 2 9-1.4 12.3-4.8 7.5-7.4-9.6-5.3-34.3-6.9-46.4-7.3v-4.9c0-3-8.3-5.5-18.5-5.5s-18.4 2.5-18.4 5.5v5.4c-16.1 1.1-29.9 3.3-39.6 6.6-16.6 5.7-21.6 12.7-13.1 18.8 8.2 5.9 27.7 9.7 52.1 10.2 19 .4 44.9 1 57.7 4.9 6.8 2.1 10.2 4.9 9.7 8s-5.1 6.1-12.6 8.2c-14.1 4-36.9 5.5-56.8 3.6-8.9-.8-24.2-3.1-27.8-8.8-1.9-3-11.5-4.9-21.5-4.4-10 .6-16.6 3.4-14.7 6.4 5.2 8.2 24.4 14.5 52.8 17.2 4.5.4 9.1.8 13.7 1v5c0 3 8.3 5.5 18.4 5.5 10.2 0 18.5-2.5 18.5-5.5v-5.4c16.1-1.1 31.1-3.4 43-6.8 14.3-4.1 22.8-9.6 23.8-15.5 1.2-6.1-5.9-11.9-19.9-16.1z" class="st1"/><path d="M1073.7 1080.7c-22.6-6.9-58.1-7.7-81.6-8.2-10.3-.2-17.9-1.5-20.7-3.5-3-2.1-.4-4.9 6.9-7.4 6.5-2.2 18.5-3.5 33-3.6 16-.1 27.4 1.3 29.9 2 5 2.5 15.9 3.4 24.6 2 9-1.4 12.3-4.8 7.5-7.4-9.6-5.3-34.3-6.9-46.4-7.3v-4.9c0-3-8.3-5.5-18.4-5.5-10.2 0-18.4 2.5-18.4 5.5v5.4c-16.1 1.1-29.9 3.3-39.6 6.6-16.6 5.7-21.5 12.7-13.1 18.8 8.2 5.9 27.7 9.7 52.1 10.2 19 .4 44.9 1 57.7 4.9 6.8 2.1 10.2 4.9 9.7 8s-5.1 6.1-12.6 8.2c-14.1 4-36.9 5.5-56.8 3.6-8.9-.8-24.2-3.1-27.8-8.8-1.9-3-11.5-4.9-21.5-4.4-10 .6-16.6 3.4-14.7 6.4 5.2 8.2 24.4 14.5 52.8 17.2 4.5.4 9.1.8 13.7 1v5c0 3 8.3 5.5 18.4 5.5 10.2 0 18.4-2.5 18.4-5.5v-5.4c16.1-1.1 31.1-3.4 43-6.8 14.3-4.1 22.8-9.6 23.8-15.5 1.2-6.1-5.9-11.9-19.9-16.1z" class="st1"/><path id="p_1_" d="m795.9 1099.3-56.6 10.4c-9.6-8.3-14.8-17.1-14.8-26.3 0-.7 0-1.4.1-2l70.5-12.9c-4.1 4.8-6.2 9.8-6.2 15-.1 5.4 2.4 10.7 7 15.8z" class="st1"/><path id="w_1_" d="m1191.2 1026.8-56.6 10.4c-25.9-6.8-57.7-11.7-92.7-14l70.5-12.9c29.6 4 56.2 9.7 78.8 16.5z" class="st1"/><path id="Q_5_" d="m829.7 1120.2-54.9 10.1c-8.6-3.6-16.2-7.4-22.8-11.3l55.1-10.1c6.2 3.9 13.8 7.7 22.6 11.3z" class="st1"/><path id="j_3_" d="m1237.2 1045.4-54.9 10.1c-6.7-4-14.9-7.7-24.3-11.1l55.1-10.1c9.1 3.5 17.1 7.2 24.1 11.1z" class="st1"/><path d="m951.7 1143.7-70.6 12.9c-24.3-3.4-46.6-7.8-66.3-13.1l57.8-10.6c23.2 5.1 50 8.8 79.1 10.8zm317.4-60.3c0 .7 0 1.4-.1 2l-71 13c4.3-4.8 6.6-9.8 6.6-15.1 0-3.7-1.2-7.3-3.4-10.8l58.1-10.7c6.5 7 9.8 14.2 9.8 21.6z" class="st1"/><path id="l_1_" d="M996.8 1164.2c-150.4 0-272.3-36.2-272.3-80.8v63.7c0 44.7 121.9 80.8 272.3 80.8s272.3-36.2 272.3-80.8l-1-57.1c-11.2 41.5-128.4 74.2-271.3 74.2z" class="st1"/><path id="b_1_" d="M760.1 1187.1c11.7 6.1 26 11.7 42.4 16.7V1140c-16.4-5-30.7-10.6-42.4-16.7v63.8z" class="st1"/><path id="AW" d="M904.5 1159.5c-14.8-1.6-29-3.5-42.4-5.8v63.7c13.5 2.3 27.6 4.3 42.4 5.8v-63.7z" class="st1"/><path id="K_10_" d="M840.4 1149.5c-7.3-1.5-14.4-3.2-21.2-4.9v63.7c6.8 1.7 13.9 3.4 21.2 4.9v-63.7z" class="st1"/><path id="n_2_" d="M1102.4 1221.6c19.9-2.5 38.5-5.7 55.6-9.4v-63.7c-17.1 3.7-35.8 6.9-55.6 9.4v63.7z" class="st1"/><path id="c_1_" d="M1218 1130.5c-11.6 4.8-25 9.2-39.8 13.1v63.7c14.8-3.9 28.2-8.4 39.8-13.2v-63.6z" class="st1"/><path id="d_1_" d="M1269.1 1006.6c0 44.7-121.9 80.8-272.3 80.8s-272.3-36.2-272.3-80.8 121.9-80.8 272.3-80.8 272.3 36.2 272.3 80.8z" class="st1"/><path id="B_9_" d="M1204.7 1006.6c0 34.1-93.1 61.7-207.9 61.7-114.8 0-207.9-27.6-207.9-61.7s93.1-61.7 207.9-61.7c114.8 0 207.9 27.6 207.9 61.7z" class="st1"/><path d="M1204.7 1006.6c0 32.2-87.9 58.3-196.2 58.3-108.4 0-196.2-26.1-196.2-58.3s87.8-58.2 196.2-58.2 196.2 26.1 196.2 58.2z" class="st1"/><path d="M1061 1003.9c-22.6-7-58.1-7.7-81.6-8.2-10.3-.2-17.9-1.5-20.7-3.5-3-2.1-.4-4.9 6.9-7.4 6.4-2.2 18.5-3.5 33-3.6 16-.1 27.4 1.3 29.9 2 5 2.5 15.9 3.4 24.6 2 9-1.4 12.3-4.8 7.5-7.4-9.6-5.3-34.3-6.9-46.4-7.3v-4.9c0-3-8.3-5.5-18.5-5.5s-18.4 2.4-18.4 5.5v5.4c-16.1 1.1-29.9 3.4-39.6 6.6-16.6 5.7-21.6 12.7-13.1 18.8 8.2 5.9 27.7 9.7 52.1 10.2 19 .4 44.9 1 57.7 4.9 6.8 2.1 10.2 4.9 9.7 8s-5.1 6.1-12.6 8.2c-14.1 4-36.9 5.5-56.8 3.6-8.8-.8-24.2-3.1-27.8-8.7-1.9-3-11.5-4.9-21.5-4.4-10 .6-16.6 3.4-14.7 6.4 5.2 8.2 24.5 14.5 52.8 17.2 4.5.4 9.1.7 13.7 1v5c0 3 8.3 5.5 18.4 5.5 10.2 0 18.5-2.4 18.5-5.5v-5.4c16.1-1.1 31.1-3.4 43-6.8 14.3-4.1 22.8-9.6 23.8-15.5 1.2-6.2-5.9-11.9-19.9-16.2z" class="st1"/><path d="M1073.7 1003.9c-22.6-6.9-58.1-7.7-81.6-8.2-10.3-.2-17.9-1.5-20.7-3.5-3-2.1-.4-4.9 6.9-7.4 6.5-2.2 18.5-3.5 33-3.6 16-.1 27.4 1.3 29.9 2 5 2.5 15.9 3.4 24.6 2 9-1.4 12.3-4.8 7.5-7.4-9.6-5.3-34.3-6.9-46.4-7.3v-4.9c0-3-8.3-5.5-18.4-5.5-10.2 0-18.5 2.4-18.5 5.5v5.4c-16.1 1.1-29.9 3.4-39.6 6.6-16.6 5.7-21.5 12.7-13.1 18.8 8.2 5.9 27.7 9.7 52.1 10.2 19 .4 44.9 1 57.7 4.9 6.8 2.1 10.2 4.9 9.7 8s-5.1 6.1-12.6 8.2c-14.1 4-36.9 5.5-56.8 3.6-8.8-.8-24.2-3.1-27.8-8.7-1.9-3-11.5-4.9-21.5-4.4-10 .6-16.6 3.4-14.7 6.4 5.2 8.2 24.4 14.5 52.8 17.2 4.5.4 9.1.7 13.7 1v5c0 3 8.3 5.5 18.5 5.5s18.4-2.4 18.4-5.5v-5.4c16.1-1.1 31.1-3.4 43-6.8 14.3-4.1 22.8-9.6 23.8-15.5 1.2-6.2-5.9-11.9-19.9-16.2zM795.9 1022.5l-56.6 10.4c-9.6-8.3-14.8-17.1-14.8-26.3 0-.7 0-1.4.1-2l70.5-12.9c-4.1 4.8-6.2 9.8-6.2 15-.1 5.4 2.4 10.8 7 15.8zm395.3-72.5-56.6 10.4c-25.9-6.8-57.7-11.8-92.7-14l70.5-12.9c29.6 4 56.2 9.7 78.8 16.5zM829.8 1043.4l-54.9 10.1c-8.6-3.6-16.2-7.4-22.8-11.3l55.1-10.1c6.2 4 13.7 7.8 22.6 11.3zm407.5-74.7-54.9 10.1c-6.7-4-14.9-7.7-24.3-11.1l55.1-10.1c8.3 3.1 16.3 6.8 24.1 11.1z" class="st1"/><path id="k_3_" d="m951.7 1066.9-70.6 12.9c-24.3-3.4-46.6-7.8-66.3-13.1l57.8-10.6c23.2 5.2 50 8.9 79.1 10.8z" class="st1"/><path d="m1269.1 1006.6-.1 2.1-70.9 13c4.3-4.8 6.6-9.9 6.6-15.1 0-3.7-1.2-7.3-3.4-10.8l58.1-10.7c6.4 6.9 9.7 14.1 9.7 21.5z" class="st1"/><path id="r_2_" d="M996.8 1087.5c-150.4 0-272.3-36.2-272.3-80.8v63.7c0 44.6 121.9 80.8 272.3 80.8s272.3-36.2 272.3-80.8l-1-57.1c-11.2 41.5-128.4 74.2-271.3 74.2z" class="st1"/><path id="T_7_" d="M760.1 1110.3c11.7 6.1 26 11.7 42.4 16.7v-63.7c-16.4-5-30.7-10.6-42.4-16.7v63.7z" class="st1"/><path id="m_2_" d="M904.5 1082.7c-14.8-1.6-29-3.5-42.4-5.8v63.7c13.5 2.3 27.6 4.2 42.4 5.8v-63.7z" class="st1"/><path id="K_11_" d="M840.4 1072.8c-7.3-1.5-14.4-3.2-21.2-4.9v63.7c6.8 1.7 13.9 3.4 21.2 4.9v-63.7z" class="st1"/><path id="L_6_" d="M1102.4 1144.8c19.9-2.5 38.5-5.7 55.7-9.4v-63.7c-17.1 3.7-35.8 6.9-55.7 9.4v63.7z" class="st1"/><path id="f_1_" d="M1218 1053.7c-11.6 4.8-25 9.2-39.8 13.2v63.7c14.8-3.9 28.2-8.4 39.8-13.1v-63.8z" class="st1"/><path id="s_1_" d="M1269.1 921.7c0 44.6-121.9 80.8-272.3 80.8s-272.3-36.2-272.3-80.8c0-44.7 121.9-80.8 272.3-80.8s272.3 36.2 272.3 80.8z" class="st1"/><path d="M1204.7 921.7c0 34.1-93.1 61.7-207.9 61.7s-207.9-27.6-207.9-61.7S882 860 996.8 860s207.9 27.7 207.9 61.7z" class="st1"/><path id="t_1_" d="M1204.7 921.7c0 32.2-87.9 58.2-196.2 58.2-108.4 0-196.2-26.1-196.2-58.2 0-32.2 87.8-58.2 196.2-58.2s196.2 26.1 196.2 58.2z" class="st1"/><path d="M1061 919c-22.6-6.9-58.1-7.7-81.6-8.2-10.3-.2-17.9-1.5-20.7-3.5-3-2.1-.4-4.9 6.9-7.4 6.5-2.2 18.5-3.5 33-3.6 16-.1 27.4 1.3 29.9 2 5 2.5 15.9 3.4 24.6 2 9-1.4 12.3-4.8 7.5-7.4-9.6-5.3-34.3-6.9-46.4-7.3v-4.9c0-3-8.3-5.5-18.5-5.5s-18.4 2.5-18.4 5.5v5.4c-16.1 1.1-29.9 3.4-39.6 6.7-16.6 5.7-21.6 12.7-13.1 18.8 8.2 5.9 27.7 9.7 52.1 10.2 19 .4 44.9 1 57.7 4.9 6.8 2.1 10.2 4.9 9.7 8s-5.1 6.1-12.6 8.2c-14.1 4-36.9 5.5-56.8 3.6-8.9-.8-24.2-3.1-27.8-8.7-1.9-3-11.5-4.9-21.5-4.4-10 .6-16.6 3.4-14.7 6.4 5.2 8.2 24.4 14.5 52.8 17.2 4.5.4 9.1.7 13.7 1v5c0 3 8.3 5.5 18.4 5.5 10.2 0 18.5-2.5 18.5-5.5v-5.4c16.1-1.1 31.1-3.4 43-6.7 14.3-4.1 22.8-9.6 23.8-15.5 1.2-6.4-5.9-12.1-19.9-16.4z" class="st1"/><path d="M1073.7 919c-22.6-6.9-58.1-7.7-81.6-8.2-10.3-.2-17.9-1.5-20.7-3.5-3-2.1-.4-4.9 6.9-7.4 6.5-2.2 18.5-3.5 33-3.6 16-.1 27.4 1.3 29.9 2 5 2.5 15.9 3.4 24.6 2 9-1.4 12.3-4.8 7.5-7.4-9.6-5.3-34.3-6.9-46.4-7.3v-4.9c0-3-8.3-5.5-18.4-5.5-10.2 0-18.4 2.4-18.4 5.5v5.4c-16.1 1.1-29.9 3.4-39.6 6.7-16.6 5.7-21.5 12.7-13.1 18.8 8.2 5.9 27.7 9.7 52.1 10.2 19 .4 44.9 1 57.7 4.9 6.8 2.1 10.2 4.9 9.7 8s-5.1 6.1-12.6 8.2c-14.1 4-36.9 5.5-56.8 3.6-8.9-.8-24.2-3.1-27.8-8.7-1.9-3-11.5-4.9-21.5-4.4-10 .6-16.6 3.4-14.7 6.4 5.2 8.2 24.4 14.5 52.8 17.2 4.5.4 9.1.7 13.7 1v5c0 3 8.3 5.5 18.4 5.5 10.2 0 18.4-2.5 18.4-5.5v-5.4c16.1-1.1 31.1-3.4 43-6.7 14.3-4.1 22.8-9.6 23.8-15.5 1.2-6.4-5.9-12.1-19.9-16.4zM795.9 937.7 739.2 948c-9.6-8.2-14.8-17.1-14.8-26.3 0-.7 0-1.4.1-2l70.5-12.9c-4.1 4.8-6.2 9.8-6.2 15 0 5.4 2.5 10.8 7.1 15.9zm395.3-72.6-56.6 10.4c-25.9-6.8-57.7-11.8-92.7-14l70.5-12.9c29.6 4 56.2 9.7 78.8 16.5z" class="st1"/><path id="E_4_" d="m829.7 958.5-54.9 10.1c-8.6-3.6-16.2-7.4-22.8-11.3l55.1-10.1c6.2 4 13.8 7.8 22.6 11.3z" class="st1"/><path id="j_4_" d="m1237.2 883.8-54.9 10.1c-6.7-4-14.9-7.7-24.3-11.1l55.1-10.1c9.1 3.5 17.1 7.2 24.1 11.1z" class="st1"/><path id="k_4_" d="m951.7 982-70.6 12.9c-24.3-3.4-46.6-7.8-66.3-13.1l57.8-10.6c23.2 5.2 50 8.9 79.1 10.8z" class="st1"/><path id="q_1_" d="m1269.1 921.7-.1 2.1-71 13c4.3-4.8 6.6-9.9 6.6-15.1 0-3.7-1.2-7.3-3.4-10.8l58.1-10.7c6.5 6.9 9.8 14.1 9.8 21.5z" class="st1"/><path id="r_3_" d="M996.8 1002.6c-150.4 0-272.3-36.2-272.3-80.8v63.7c0 44.6 121.9 80.8 272.3 80.8s272.3-36.2 272.3-80.8l-1-57.1c-11.2 41.5-128.4 74.2-271.3 74.2z" class="st1"/><path id="T_8_" d="M760.1 1025.4c11.7 6.1 26 11.7 42.4 16.7v-63.7c-16.4-5-30.7-10.6-42.4-16.7v63.7z" class="st1"/><path id="AX" d="M904.5 997.8c-14.8-1.6-29-3.5-42.4-5.8v63.7c13.5 2.3 27.6 4.2 42.4 5.8v-63.7z" class="st1"/><path id="AY" d="M840.4 987.9c-7.3-1.5-14.4-3.2-21.2-4.9v63.7c6.8 1.7 13.9 3.4 21.2 4.9v-63.7z" class="st1"/><path d="M1102.4 1060c19.9-2.5 38.5-5.7 55.6-9.4v-63.7c-17.1 3.7-35.8 6.9-55.6 9.4v63.7z" class="st1"/><path id="AZ" d="M1218 968.8c-11.6 4.8-25 9.2-39.8 13.2v63.7c14.8-3.9 28.2-8.3 39.8-13.2v-63.7z" class="st1"/><path id="A_3_" d="M1269.1 843.7c0 44.6-121.9 80.8-272.3 80.8s-272.3-36.2-272.3-80.8 121.9-80.8 272.3-80.8 272.3 36.1 272.3 80.8z" class="st1"/><path d="M1204.7 843.7c0 34.1-93.1 61.7-207.9 61.7s-207.9-27.6-207.9-61.7S882 782 996.8 782c114.8-.1 207.9 27.6 207.9 61.7z" class="st1"/><path id="o_2_" d="M1204.7 843.7c0 32.2-87.9 58.2-196.2 58.2-108.4 0-196.2-26.1-196.2-58.2 0-32.2 87.8-58.2 196.2-58.2 108.4-.1 196.2 26 196.2 58.2z" class="st1"/><path d="M1061 840.9c-22.6-6.9-58.1-7.7-81.6-8.2-10.3-.2-17.9-1.5-20.7-3.5-3-2.1-.4-4.9 6.9-7.4 6.5-2.2 18.5-3.5 33-3.6 16-.1 27.4 1.3 29.9 2 5 2.5 15.9 3.4 24.6 2 9-1.4 12.3-4.7 7.5-7.4-9.6-5.3-34.3-6.9-46.4-7.3v-4.9c0-3-8.3-5.5-18.5-5.5s-18.4 2.5-18.4 5.5v5.4c-16.1 1.1-29.9 3.3-39.6 6.6-16.6 5.7-21.6 12.7-13.1 18.8 8.2 5.9 27.7 9.7 52.1 10.2 19 .4 44.9 1 57.7 4.9 6.8 2.1 10.2 4.9 9.7 8s-5.1 6.1-12.6 8.2c-14.1 4-36.9 5.5-56.8 3.6-8.9-.8-24.2-3.1-27.8-8.7-1.9-3-11.5-4.9-21.5-4.4-10 .6-16.6 3.4-14.7 6.4 5.2 8.2 24.4 14.5 52.8 17.2 4.5.4 9.1.7 13.7 1v5c0 3 8.3 5.5 18.4 5.5 10.2 0 18.5-2.4 18.5-5.5v-5.4c16.1-1.1 31.1-3.4 43-6.8 14.3-4.1 22.8-9.6 23.8-15.5 1.2-6.1-5.9-11.9-19.9-16.2z" class="st1"/><path d="M1073.7 840.9c-22.6-6.9-58.1-7.7-81.6-8.2-10.3-.2-17.9-1.5-20.7-3.5-3-2.1-.4-4.9 6.9-7.4 6.5-2.2 18.5-3.5 33-3.6 16-.1 27.4 1.3 29.9 2 5 2.5 15.9 3.4 24.6 2 9-1.4 12.3-4.7 7.5-7.4-9.6-5.3-34.3-6.9-46.4-7.3v-4.9c0-3-8.3-5.5-18.4-5.5-10.2 0-18.4 2.5-18.4 5.5v5.4c-16.1 1.1-29.9 3.3-39.6 6.6-16.6 5.7-21.5 12.7-13.1 18.8 8.2 5.9 27.7 9.7 52.1 10.2 19 .4 44.9 1 57.7 4.9 6.8 2.1 10.2 4.9 9.7 8s-5.1 6.1-12.6 8.2c-14.1 4-36.9 5.5-56.8 3.6-8.9-.8-24.2-3.1-27.8-8.7-1.9-3-11.5-4.9-21.5-4.4-10 .6-16.6 3.4-14.7 6.4 5.2 8.2 24.4 14.5 52.8 17.2 4.5.4 9.1.7 13.7 1v5c0 3 8.3 5.5 18.4 5.5 10.2 0 18.4-2.4 18.4-5.5v-5.4c16.1-1.1 31.1-3.4 43-6.8 14.3-4.1 22.8-9.6 23.8-15.5 1.2-6.1-5.9-11.9-19.9-16.2zM795.9 859.6 739.2 870c-9.6-8.2-14.8-17.1-14.8-26.3 0-.7 0-1.4.1-2l70.5-12.9c-4.1 4.8-6.2 9.8-6.2 15 0 5.4 2.5 10.7 7.1 15.8zm395.3-72.5-56.6 10.4c-25.9-6.8-57.7-11.8-92.7-14.1l70.5-12.9c29.6 4.1 56.2 9.7 78.8 16.6z" class="st1"/><path id="E_5_" d="m829.7 880.4-54.9 10.1c-8.6-3.6-16.2-7.4-22.8-11.3l55.1-10.1c6.2 4 13.8 7.8 22.6 11.3z" class="st1"/><path id="j_5_" d="m1237.2 805.7-54.9 10.1c-6.7-4-14.9-7.7-24.3-11.1l55.1-10.1c9.1 3.5 17.1 7.2 24.1 11.1z" class="st1"/><path id="k_5_" d="m951.7 903.9-70.6 12.9c-24.3-3.4-46.6-7.8-66.3-13.1l57.8-10.6c23.2 5.2 50 8.9 79.1 10.8z" class="st1"/><path d="M1269.1 843.7c0 .7 0 1.4-.1 2l-71 13c4.3-4.8 6.6-9.9 6.6-15.1 0-3.7-1.2-7.3-3.4-10.8l58.1-10.7c6.5 7 9.8 14.1 9.8 21.6z" class="st1"/><path id="r_4_" d="M996.8 924.5c-150.4 0-272.3-36.2-272.3-80.8v63.7c0 44.6 121.9 80.8 272.3 80.8s272.3-36.2 272.3-80.8l-1-57.1c-11.2 41.5-128.4 74.2-271.3 74.2z" class="st1"/><path id="T_9_" d="M760.1 947.3c11.7 6.1 26 11.7 42.4 16.7v-63.7c-16.4-5-30.7-10.6-42.4-16.7v63.7z" class="st1"/><path id="Aa" d="M904.5 919.7c-14.8-1.6-29-3.5-42.4-5.8v63.7c13.5 2.3 27.6 4.2 42.4 5.8v-63.7z" class="st1"/><path id="Ab" d="M840.4 909.8c-7.3-1.5-14.4-3.2-21.2-4.9v63.7c6.8 1.7 13.9 3.4 21.2 4.9v-63.7z" class="st1"/><path id="n_3_" d="M1102.4 981.9c19.9-2.5 38.5-5.7 55.6-9.4v-63.7c-17.1 3.7-35.8 6.9-55.6 9.4v63.7z" class="st1"/><path id="Ac" d="M1218 890.7c-11.6 4.8-25 9.2-39.8 13.2v63.7c14.8-3.9 28.2-8.3 39.8-13.1v-63.8z" class="st1"/><path id="A_4_" d="M1269.1 766.9c0 44.6-121.9 80.8-272.3 80.8s-272.3-36.2-272.3-80.8 121.9-80.8 272.3-80.8 272.3 36.1 272.3 80.8z" class="st1"/><path d="M1204.7 766.9c0 34.1-93.1 61.7-207.9 61.7S788.9 801 788.9 766.9s93.1-61.7 207.9-61.7 207.9 27.6 207.9 61.7z" class="st1"/><ellipse cx="1008.5" cy="766.9" class="st1" rx="196.2" ry="58.2"/><path id="u_1_" d="M1061 764.2c-22.6-6.9-58.1-7.7-81.6-8.2-10.3-.2-17.9-1.5-20.7-3.5-3-2.1-.4-4.9 6.9-7.4 6.4-2.2 18.5-3.5 33-3.6 16-.1 27.4 1.3 29.9 2 5 2.5 15.9 3.4 24.6 2 9-1.4 12.3-4.8 7.5-7.4-9.6-5.3-34.3-6.9-46.4-7.3v-4.9c0-3-8.3-5.5-18.5-5.5s-18.4 2.4-18.4 5.5v5.4c-16.1 1.1-29.9 3.4-39.6 6.6-16.6 5.7-21.6 12.7-13.1 18.8 8.2 5.9 27.7 9.7 52.1 10.2 19 .4 44.9 1 57.7 4.9 6.8 2.1 10.2 4.9 9.7 8s-5.1 6.1-12.6 8.2c-14.1 4-36.9 5.5-56.8 3.6-8.8-.8-24.2-3.1-27.8-8.8-1.9-3-11.5-4.9-21.5-4.4-10 .6-16.6 3.4-14.7 6.4 5.2 8.2 24.5 14.5 52.8 17.2 4.5.4 9.1.7 13.7 1v5c0 3 8.3 5.5 18.4 5.5 10.2 0 18.5-2.5 18.5-5.5v-5.4c16.1-1.1 31.1-3.4 43-6.8 14.3-4.1 22.8-9.6 23.8-15.5 1.2-6.1-5.9-11.8-19.9-16.1z" class="st1"/><path id="v_1_" d="M1073.7 764.2c-22.6-6.9-58.1-7.7-81.6-8.2-10.3-.2-17.9-1.5-20.7-3.5-3-2.1-.4-4.9 6.9-7.4 6.5-2.2 18.5-3.5 33-3.6 16-.1 27.4 1.3 29.9 2 5 2.5 15.9 3.4 24.6 2 9-1.4 12.3-4.8 7.5-7.4-9.6-5.3-34.3-6.9-46.4-7.3v-4.9c0-3-8.3-5.5-18.4-5.5-10.2 0-18.5 2.4-18.5 5.5v5.4c-16.1 1.1-29.9 3.4-39.6 6.6-16.6 5.7-21.5 12.7-13.1 18.8 8.2 5.9 27.7 9.7 52.1 10.2 19 .4 44.9 1 57.7 4.9 6.8 2.1 10.2 4.9 9.7 8s-5.1 6.1-12.6 8.2c-14.1 4-36.9 5.5-56.8 3.6-8.8-.8-24.2-3.1-27.8-8.8-1.9-3-11.5-4.9-21.5-4.4-10 .6-16.6 3.4-14.7 6.4 5.2 8.2 24.4 14.5 52.8 17.2 4.5.4 9.1.7 13.7 1v5c0 3 8.3 5.5 18.5 5.5s18.4-2.5 18.4-5.5v-5.4c16.1-1.1 31.1-3.4 43-6.8 14.3-4.1 22.8-9.6 23.8-15.5 1.2-6.1-5.9-11.8-19.9-16.1z" class="st1"/><path id="i_2_" d="m795.9 782.8-56.6 10.4c-9.6-8.2-14.8-17.1-14.8-26.3 0-.7 0-1.4.1-2l70.5-12.9c-4.1 4.8-6.2 9.8-6.2 15-.1 5.4 2.4 10.7 7 15.8z" class="st1"/><path id="w_2_" d="m1191.2 710.3-56.6 10.4c-25.9-6.8-57.7-11.7-92.7-14l70.5-12.9c29.6 4 56.2 9.7 78.8 16.5z" class="st1"/><path d="m829.8 803.7-54.9 10.1c-8.6-3.6-16.2-7.4-22.8-11.3l55.1-10.1c6.2 3.9 13.7 7.7 22.6 11.3zm407.5-74.8-54.9 10.1c-6.7-4-14.9-7.7-24.3-11.1l55.1-10.1c9 3.5 17 7.2 24.1 11.1zM951.7 827.2l-70.6 12.9c-24.3-3.4-46.6-7.8-66.3-13.1l57.8-10.6c23.2 5.1 50 8.8 79.1 10.8zm317.4-60.3c0 .7 0 1.4-.1 2l-70.9 13c4.3-4.8 6.6-9.9 6.6-15.1 0-3.7-1.2-7.3-3.4-10.8l58.1-10.7c6.4 7 9.7 14.2 9.7 21.6z" class="st1"/><path id="r_5_" d="M996.8 847.7c-150.4 0-272.3-36.2-272.3-80.8v63.7c0 44.6 121.9 80.8 272.3 80.8s272.3-36.2 272.3-80.8l-1-57.1c-11.2 41.5-128.4 74.2-271.3 74.2z" class="st1"/><path id="T_10_" d="M760.1 870.6c11.7 6.1 26 11.7 42.4 16.7v-63.7c-16.4-5-30.7-10.6-42.4-16.7v63.7z" class="st1"/><path id="Ad" d="M904.5 843c-14.8-1.6-29-3.6-42.4-5.8v63.7c13.5 2.3 27.6 4.2 42.4 5.8V843z" class="st1"/><path id="Ae" d="M840.4 833c-7.3-1.5-14.4-3.2-21.2-4.9v63.7c6.8 1.7 13.9 3.4 21.2 4.9V833z" class="st1"/><path id="Af" d="M1102.4 905.1c19.9-2.5 38.5-5.7 55.7-9.4V832c-17.1 3.7-35.8 6.9-55.7 9.4v63.7z" class="st1"/><path id="Ag" d="M1218 814c-11.6 4.8-25 9.2-39.8 13.1v63.7c14.8-3.9 28.2-8.4 39.8-13.2V814z" class="st1"/><path id="B_10_" d="M1840.7 1316.2c0 34.1-93.1 61.7-207.9 61.7-114.8 0-207.9-27.6-207.9-61.7s93.1-61.7 207.9-61.7c114.8 0 207.9 27.6 207.9 61.7z" class="st1"/><path id="AE" d="M1840.7 1316.2c0 32.2-87.9 58.2-196.2 58.2-108.4 0-196.2-26.1-196.2-58.2 0-32.2 87.8-58.2 196.2-58.2 108.3-.1 196.2 26 196.2 58.2z" class="st1"/><path d="M1696.9 1313.5c-22.6-6.9-58.1-7.7-81.6-8.2-10.3-.2-17.9-1.5-20.7-3.5-3-2.1-.4-4.9 6.9-7.4 6.5-2.2 18.5-3.5 33-3.6 16-.1 27.4 1.3 29.9 2 5 2.5 15.9 3.4 24.6 2 9-1.4 12.3-4.8 7.5-7.4-9.6-5.3-34.3-6.9-46.4-7.3v-4.9c0-3-8.3-5.5-18.4-5.5-10.2 0-18.4 2.4-18.4 5.5v5.4c-16.1 1.1-29.9 3.4-39.6 6.6-16.6 5.7-21.6 12.7-13.1 18.8 8.2 5.9 27.7 9.7 52.1 10.2 19 .4 44.9 1 57.7 4.9 6.8 2.1 10.2 4.9 9.7 8s-5.1 6.1-12.6 8.2c-14.1 4-36.9 5.5-56.8 3.6-8.9-.8-24.2-3.1-27.8-8.7-1.9-3-11.5-4.9-21.5-4.4-10 .6-16.6 3.4-14.7 6.4 5.2 8.2 24.5 14.5 52.8 17.2 4.5.4 9.1.7 13.7 1v5c0 3 8.3 5.5 18.4 5.5 10.2 0 18.4-2.5 18.4-5.5v-5.4c16.1-1.1 31.1-3.4 43-6.8 14.3-4.1 22.8-9.6 23.8-15.5 1.2-6.2-5.9-12-19.9-16.2z" class="st1"/><path d="M1709.7 1313.5c-22.6-6.9-58.1-7.7-81.6-8.2-10.3-.2-17.9-1.5-20.7-3.5-3-2.1-.4-4.9 6.9-7.4 6.5-2.2 18.5-3.5 33-3.6 16-.1 27.4 1.3 29.9 2 5 2.5 15.9 3.4 24.6 2 9-1.4 12.3-4.8 7.5-7.4-9.6-5.3-34.3-6.9-46.4-7.3v-4.9c0-3-8.3-5.5-18.4-5.5-10.2 0-18.5 2.4-18.5 5.5v5.4c-16.1 1.1-29.9 3.4-39.5 6.6-16.7 5.7-21.6 12.7-13.1 18.8 8.2 5.9 27.7 9.7 52.1 10.2 19 .4 44.9 1 57.7 4.9 6.8 2.1 10.2 4.9 9.7 8s-5.1 6.1-12.6 8.2c-14.1 4-36.9 5.5-56.8 3.6-8.8-.8-24.2-3.1-27.8-8.7-1.9-3-11.5-4.9-21.5-4.4-10 .6-16.6 3.4-14.7 6.4 5.2 8.2 24.4 14.5 52.8 17.2 4.5.4 9.1.7 13.7 1v5c0 3 8.3 5.5 18.5 5.5s18.4-2.5 18.4-5.5v-5.4c16.1-1.1 31.1-3.4 43-6.8 14.3-4.1 22.8-9.6 23.8-15.5 1.1-6.2-6-12-20-16.2z" class="st1"/><path id="s_2_" d="M1905.1 1239.4c0 44.6-121.9 80.8-272.3 80.8s-272.3-36.2-272.3-80.8c0-44.7 121.9-80.8 272.3-80.8s272.3 36.2 272.3 80.8z" class="st1"/><path id="AG" d="M1840.7 1239.4c0 34.1-93.1 61.7-208 61.7-114.8 0-207.9-27.6-207.9-61.7s93.1-61.7 207.9-61.7c114.9 0 208 27.6 208 61.7z" class="st1"/><path id="AH" d="M1840.7 1239.4c0 32.2-87.9 58.2-196.2 58.2-108.4 0-196.2-26.1-196.2-58.2 0-32.2 87.8-58.2 196.2-58.2 108.3 0 196.2 26.1 196.2 58.2z" class="st1"/><path id="AI" d="M1696.9 1236.7c-22.6-6.9-58.1-7.7-81.6-8.2-10.3-.2-17.9-1.5-20.7-3.5-3-2.1-.4-4.9 6.9-7.4 6.5-2.2 18.5-3.5 33-3.6 16-.1 27.4 1.3 29.9 2 5 2.5 15.9 3.4 24.6 2 9-1.4 12.3-4.8 7.5-7.4-9.6-5.3-34.3-6.9-46.4-7.3v-4.9c0-3-8.3-5.5-18.4-5.5-10.2 0-18.4 2.4-18.4 5.5v5.4c-16.1 1.1-29.9 3.4-39.6 6.6-16.7 5.7-21.6 12.7-13.1 18.8 8.2 5.9 27.7 9.7 52.1 10.2 19 .4 44.9 1 57.7 4.9 6.8 2.1 10.2 4.9 9.7 8s-5.1 6.1-12.6 8.2c-14.1 4-36.9 5.5-56.8 3.6-8.9-.8-24.2-3.1-27.8-8.8-1.9-3-11.5-4.9-21.5-4.4-10 .6-16.6 3.4-14.7 6.4 5.2 8.2 24.5 14.5 52.8 17.2 4.5.4 9.1.7 13.7 1v5c0 3 8.3 5.5 18.4 5.5 10.2 0 18.4-2.5 18.4-5.5v-5.4c16.1-1.1 31.1-3.4 43-6.8 14.3-4.1 22.8-9.6 23.8-15.5 1.2-6.1-5.9-11.8-19.9-16.1z" class="st1"/><path id="AJ" d="M1709.7 1236.7c-22.6-6.9-58.1-7.7-81.6-8.2-10.3-.2-17.9-1.5-20.7-3.5-3-2.1-.4-4.9 6.9-7.4 6.5-2.2 18.5-3.5 33-3.6 16-.1 27.4 1.3 29.9 2 5 2.5 15.9 3.4 24.6 2 9-1.4 12.3-4.8 7.5-7.4-9.6-5.3-34.3-6.9-46.4-7.3v-4.9c0-3-8.3-5.5-18.4-5.5-10.2 0-18.5 2.4-18.5 5.5v5.4c-16.1 1.1-29.9 3.4-39.6 6.6-16.7 5.7-21.6 12.7-13.1 18.8 8.2 5.9 27.7 9.7 52.1 10.2 19 .4 44.9 1 57.7 4.9 6.8 2.1 10.2 4.9 9.7 8s-5.1 6.1-12.6 8.2c-14.1 4-36.9 5.5-56.8 3.6-8.8-.8-24.2-3.1-27.8-8.8-1.9-3-11.5-4.9-21.5-4.4-10 .6-16.6 3.4-14.7 6.4 5.2 8.2 24.5 14.5 52.9 17.2 4.5.4 9.1.7 13.7 1v5c0 3 8.3 5.5 18.5 5.5s18.4-2.5 18.4-5.5v-5.4c16.1-1.1 31.1-3.4 43-6.8 14.3-4.1 22.8-9.6 23.8-15.5 1.1-6.1-6-11.8-20-16.1z" class="st1"/><path d="m1431.8 1255.3-56.6 10.4c-9.6-8.2-14.8-17.1-14.8-26.3 0-.7.1-1.4.1-2l70.5-12.9c-4.1 4.8-6.2 9.8-6.2 15 0 5.4 2.4 10.8 7 15.8z" class="st1"/><path id="V_2_" d="m1827.1 1182.8-56.6 10.4c-25.9-6.8-57.7-11.7-92.7-14l70.5-12.9c29.7 4 56.3 9.7 78.8 16.5z" class="st1"/><path id="E_7_" d="m1465.7 1276.2-54.9 10.1c-8.6-3.6-16.2-7.4-22.8-11.3l55.1-10.1c6.2 4 13.8 7.8 22.6 11.3z" class="st1"/><path id="AT_1_" d="m1873.2 1201.5-54.9 10.1c-6.7-4-14.9-7.7-24.3-11.1l55.1-10.1c9 3.4 17.1 7.1 24.1 11.1z" class="st1"/><path d="m1587.7 1299.7-70.6 12.9c-24.3-3.4-46.6-7.8-66.3-13.1l57.8-10.6c23.1 5.1 49.9 8.9 79.1 10.8zm317.4-60.3c0 .7-.1 1.4-.1 2l-70.9 13c4.3-4.8 6.6-9.8 6.6-15.1 0-3.7-1.2-7.3-3.4-10.8l58.1-10.6c6.3 6.9 9.7 14.1 9.7 21.5z" class="st1"/><path id="W_1_" d="M1632.7 1320.2c-150.4 0-272.3-36.2-272.3-80.8v63.7c0 44.6 121.9 80.8 272.3 80.8s272.3-36.2 272.3-80.8l-1-57.1c-11.2 41.6-128.3 74.2-271.3 74.2z" class="st1"/><path id="T_12_" d="M1396.1 1343.1c11.7 6.1 26 11.7 42.4 16.7v-63.7c-16.4-5-30.7-10.6-42.4-16.7v63.7z" class="st1"/><path id="x_2_" d="M1540.4 1315.5c-14.8-1.6-29-3.6-42.4-5.8v63.7c13.5 2.3 27.6 4.2 42.4 5.8v-63.7z" class="st1"/><path id="K_14_" d="M1476.3 1305.6c-7.3-1.5-14.4-3.2-21.2-4.9v63.7c6.8 1.7 13.9 3.4 21.2 4.9v-63.7z" class="st1"/><path id="L_8_" d="M1738.4 1377.6c19.9-2.5 38.5-5.7 55.7-9.4v-63.7c-17.1 3.7-35.8 6.9-55.7 9.4v63.7z" class="st1"/><path id="U_7_" d="M1854 1286.5c-11.6 4.8-25 9.2-39.8 13.2v63.7c14.8-3.9 28.2-8.4 39.8-13.2v-63.7z" class="st1"/><path d="M1905.1 1161.5c0 44.6-121.9 80.8-272.3 80.8s-272.3-36.2-272.3-80.8c0-44.7 121.9-80.8 272.3-80.8 150.4-.1 272.3 36.1 272.3 80.8z" class="st1"/><path id="g_3_" d="M1840.7 1161.5c0 34.1-93.1 61.7-207.9 61.7s-207.9-27.6-207.9-61.7 93.1-61.7 207.9-61.7c114.8-.1 207.9 27.6 207.9 61.7z" class="st1"/><path id="AE_1_" d="M1840.7 1161.5c0 32.2-87.9 58.2-196.2 58.2-108.4 0-196.2-26.1-196.2-58.2 0-32.2 87.8-58.2 196.2-58.2 108.3-.1 196.2 26 196.2 58.2z" class="st1"/><path d="M1696.9 1158.7c-22.6-6.9-58.1-7.7-81.6-8.2-10.3-.2-17.9-1.5-20.7-3.5-3-2.1-.4-4.9 6.9-7.4 6.5-2.2 18.5-3.5 33-3.6 16-.1 27.4 1.3 29.9 2 5 2.5 15.9 3.4 24.6 2 9-1.4 12.3-4.8 7.5-7.4-9.6-5.3-34.3-6.9-46.4-7.3v-4.9c0-3-8.3-5.5-18.4-5.5-10.2 0-18.4 2.5-18.4 5.5v5.4c-16.1 1.1-29.9 3.3-39.6 6.6-16.6 5.7-21.6 12.7-13.1 18.8 8.2 5.9 27.7 9.7 52.1 10.2 19 .4 44.9 1 57.7 4.9 6.8 2.1 10.2 4.9 9.7 8s-5.1 6.1-12.6 8.2c-14.1 4-36.9 5.5-56.8 3.6-8.9-.8-24.2-3.1-27.8-8.8-1.9-3-11.5-4.9-21.5-4.4-10 .6-16.6 3.4-14.7 6.4 5.2 8.2 24.5 14.5 52.8 17.2 4.5.4 9.1.7 13.7 1v5c0 3 8.3 5.5 18.4 5.5 10.2 0 18.4-2.5 18.4-5.5v-5.4c16.1-1.1 31.1-3.4 43-6.7 14.3-4.1 22.8-9.6 23.8-15.5 1.2-6.1-5.9-11.9-19.9-16.2z" class="st1"/><path d="M1709.7 1158.7c-22.6-6.9-58.1-7.7-81.6-8.2-10.3-.2-17.9-1.5-20.7-3.5-3-2.1-.4-4.9 6.9-7.4 6.5-2.2 18.5-3.5 33-3.6 16-.1 27.4 1.3 29.9 2 5 2.5 15.9 3.4 24.6 2 9-1.4 12.3-4.8 7.5-7.4-9.6-5.3-34.3-6.9-46.4-7.3v-4.9c0-3-8.3-5.5-18.4-5.5-10.2 0-18.5 2.4-18.5 5.5v5.4c-16.1 1.1-29.9 3.3-39.5 6.6-16.7 5.7-21.6 12.7-13.1 18.8 8.2 5.9 27.7 9.7 52.1 10.2 19 .4 44.9 1 57.7 4.9 6.8 2.1 10.2 4.9 9.7 8s-5.1 6.1-12.6 8.2c-14.1 4-36.9 5.5-56.8 3.6-8.8-.8-24.2-3.1-27.8-8.8-1.9-3-11.5-4.9-21.5-4.4-10 .6-16.6 3.4-14.7 6.4 5.2 8.2 24.4 14.5 52.8 17.2 4.5.4 9.1.7 13.7 1v5c0 3 8.3 5.5 18.5 5.5s18.4-2.5 18.4-5.5v-5.4c16.1-1.1 31.1-3.4 43-6.7 14.3-4.1 22.8-9.6 23.8-15.5 1.1-6.1-6-11.9-20-16.2z" class="st1"/><path id="AA_1_" d="m1431.8 1177.4-56.6 10.4c-9.6-8.2-14.8-17.1-14.8-26.3 0-.7.1-1.4.1-2l70.5-12.9c-4.1 4.8-6.2 9.8-6.2 15 0 5.4 2.4 10.7 7 15.8z" class="st1"/><path id="AK" d="m1827.1 1104.9-56.5 10.4c-25.9-6.8-57.7-11.7-92.7-14l70.5-12.9c29.6 4 56.2 9.6 78.7 16.5z" class="st1"/><path id="Q_7_" d="m1465.7 1198.3-54.9 10.1c-8.6-3.6-16.2-7.4-22.8-11.3l55.1-10.1c6.2 3.9 13.8 7.7 22.6 11.3z" class="st1"/><path id="AB_2_" d="m1873.2 1123.5-54.9 10.1c-6.7-4-14.9-7.7-24.3-11.1l55.1-10.1c9 3.5 17.1 7.2 24.1 11.1z" class="st1"/><path id="AC_2_" d="m1587.7 1221.7-70.6 12.9c-24.3-3.4-46.6-7.8-66.3-13.1l57.8-10.6c23.1 5.2 49.9 8.9 79.1 10.8z" class="st1"/><path id="Y_1_" d="M1905.1 1161.5c0 .7-.1 1.4-.1 2l-70.9 13c4.3-4.8 6.6-9.8 6.6-15.1 0-3.7-1.2-7.3-3.4-10.8l58.1-10.7c6.3 7 9.7 14.1 9.7 21.6z" class="st1"/><path id="S_3_" d="M1632.7 1242.3c-150.4 0-272.3-36.2-272.3-80.8v63.7c0 44.6 121.9 80.8 272.3 80.8s272.3-36.2 272.3-80.8l-1-57.1c-11.2 41.5-128.3 74.2-271.3 74.2z" class="st1"/><path id="T_13_" d="M1396.1 1265.2c11.7 6.1 26 11.7 42.4 16.7v-63.7c-16.4-5-30.7-10.6-42.4-16.7v63.7z" class="st1"/><path id="x_3_" d="M1540.4 1237.5c-14.8-1.6-29-3.6-42.4-5.8v63.7c13.5 2.3 27.6 4.2 42.4 5.8v-63.7z" class="st1"/><path id="K_15_" d="M1476.3 1227.6c-7.3-1.5-14.4-3.2-21.2-4.9v63.7c6.8 1.7 13.9 3.4 21.2 4.9v-63.7z" class="st1"/><path id="L_9_" d="M1738.4 1299.7c19.9-2.5 38.5-5.7 55.7-9.4v-63.7c-17.1 3.7-35.8 6.9-55.7 9.4v63.7z" class="st1"/><path id="U_8_" d="M1854 1208.6c-11.6 4.8-25 9.2-39.8 13.2v63.7c14.8-3.9 28.2-8.4 39.8-13.2v-63.7z" class="st1"/><path id="A_5_" d="M1905.1 1083.4c0 44.6-121.9 80.8-272.3 80.8s-272.3-36.2-272.3-80.8 121.9-80.8 272.3-80.8 272.3 36.1 272.3 80.8z" class="st1"/><path id="B_11_" d="M1840.7 1083.4c0 34.1-93.1 61.7-207.9 61.7-114.8 0-207.9-27.6-207.9-61.7s93.1-61.7 207.9-61.7c114.8 0 207.9 27.6 207.9 61.7z" class="st1"/><path id="z_1_" d="M1840.7 1083.4c0 32.2-87.9 58.2-196.2 58.2-108.4 0-196.2-26.1-196.2-58.2 0-32.2 87.8-58.3 196.2-58.3 108.3 0 196.2 26.1 196.2 58.3z" class="st1"/><path d="M1696.9 1080.7c-22.6-6.9-58.1-7.7-81.6-8.2-10.3-.2-17.9-1.5-20.7-3.5-3-2.1-.4-4.9 6.9-7.4 6.5-2.2 18.5-3.5 33-3.6 16-.1 27.4 1.3 29.9 2 5 2.5 15.9 3.4 24.6 2 9-1.4 12.3-4.8 7.5-7.4-9.6-5.3-34.3-6.9-46.4-7.3v-4.9c0-3-8.3-5.5-18.4-5.5-10.2 0-18.4 2.5-18.4 5.5v5.4c-16.1 1.1-29.9 3.3-39.6 6.6-16.6 5.7-21.6 12.7-13.1 18.8 8.2 5.9 27.7 9.7 52.1 10.2 19 .4 44.9 1 57.7 4.9 6.8 2.1 10.2 4.9 9.7 8s-5.1 6.1-12.6 8.2c-14.1 4-36.9 5.5-56.8 3.6-8.9-.8-24.2-3.1-27.8-8.8-1.9-3-11.5-4.9-21.5-4.4-10 .6-16.6 3.4-14.7 6.4 5.2 8.2 24.5 14.5 52.8 17.2 4.5.4 9.1.8 13.7 1v5c0 3 8.3 5.5 18.4 5.5 10.2 0 18.4-2.5 18.4-5.5v-5.4c16.1-1.1 31.1-3.4 43-6.8 14.3-4.1 22.8-9.6 23.8-15.5 1.2-6.1-5.9-11.9-19.9-16.1z" class="st1"/><path d="M1709.7 1080.7c-22.6-6.9-58.1-7.7-81.6-8.2-10.3-.2-17.9-1.5-20.7-3.5-3-2.1-.4-4.9 6.9-7.4 6.5-2.2 18.5-3.5 33-3.6 16-.1 27.4 1.3 29.9 2 5 2.5 15.9 3.4 24.6 2 9-1.4 12.3-4.8 7.5-7.4-9.6-5.3-34.3-6.9-46.4-7.3v-4.9c0-3-8.3-5.5-18.4-5.5-10.2 0-18.5 2.5-18.5 5.5v5.4c-16.1 1.1-29.9 3.3-39.5 6.6-16.7 5.7-21.6 12.7-13.1 18.8 8.2 5.9 27.7 9.7 52.1 10.2 19 .4 44.9 1 57.7 4.9 6.8 2.1 10.2 4.9 9.7 8s-5.1 6.1-12.6 8.2c-14.1 4-36.9 5.5-56.8 3.6-8.8-.8-24.2-3.1-27.8-8.8-1.9-3-11.5-4.9-21.5-4.4-10 .6-16.6 3.4-14.7 6.4 5.2 8.2 24.4 14.5 52.8 17.2 4.5.4 9.1.8 13.7 1v5c0 3 8.3 5.5 18.5 5.5s18.4-2.5 18.4-5.5v-5.4c16.1-1.1 31.1-3.4 43-6.8 14.3-4.1 22.8-9.6 23.8-15.5 1.1-6.1-6-11.9-20-16.1z" class="st1"/><path id="AF_1_" d="m1431.8 1099.3-56.6 10.4c-9.6-8.3-14.8-17.1-14.8-26.3 0-.7.1-1.4.1-2l70.5-12.9c-4.1 4.8-6.2 9.8-6.2 15 0 5.4 2.4 10.7 7 15.8z" class="st1"/><path d="m1827.1 1026.8-56.5 10.4c-25.9-6.8-57.7-11.7-92.7-14l70.5-12.9c29.6 4 56.2 9.7 78.7 16.5z" class="st1"/><path id="Q_8_" d="m1465.7 1120.2-54.9 10.1c-8.6-3.6-16.2-7.4-22.8-11.3l55.1-10.1c6.2 3.9 13.8 7.7 22.6 11.3z" class="st1"/><path id="AB_3_" d="m1873.2 1045.4-54.9 10.1c-6.7-4-14.9-7.7-24.3-11.1l55.1-10.1c9 3.5 17.1 7.2 24.1 11.1z" class="st1"/><path id="Ah" d="m1587.7 1143.7-70.6 12.9c-24.3-3.4-46.6-7.8-66.3-13.1l57.8-10.6c23.1 5.1 49.9 8.8 79.1 10.8z" class="st1"/><path id="Z_1_" d="M1905.1 1083.4c0 .7-.1 1.4-.1 2l-70.9 13c4.3-4.8 6.6-9.8 6.6-15.1 0-3.7-1.2-7.3-3.4-10.8l58.1-10.7c6.3 7 9.7 14.2 9.7 21.6z" class="st1"/><path id="a_2_" d="M1632.7 1164.2c-150.4 0-272.3-36.2-272.3-80.8v63.7c0 44.7 121.9 80.8 272.3 80.8s272.3-36.2 272.3-80.8l-1-57.1c-11.2 41.5-128.3 74.2-271.3 74.2z" class="st1"/><path id="b_2_" d="M1396.1 1187.1c11.7 6.1 26 11.7 42.4 16.7V1140c-16.4-5-30.7-10.6-42.4-16.7v63.8z" class="st1"/><path id="AW_1_" d="M1540.4 1159.5c-14.8-1.6-29-3.5-42.4-5.8v63.7c13.5 2.3 27.6 4.3 42.4 5.8v-63.7z" class="st1"/><path id="K_16_" d="M1476.3 1149.5c-7.3-1.5-14.4-3.2-21.2-4.9v63.7c6.8 1.7 13.9 3.4 21.2 4.9v-63.7z" class="st1"/><path id="L_10_" d="M1738.4 1221.6c19.9-2.5 38.5-5.7 55.7-9.4v-63.7c-17.1 3.7-35.8 6.9-55.7 9.4v63.7z" class="st1"/><path id="c_2_" d="M1854 1130.5c-11.6 4.8-25 9.2-39.8 13.1v63.7c14.8-3.9 28.2-8.4 39.8-13.2v-63.6z" class="st1"/><path id="d_2_" d="M1905.1 1006.6c0 44.7-121.9 80.8-272.3 80.8s-272.3-36.2-272.3-80.8 121.9-80.8 272.3-80.8 272.3 36.2 272.3 80.8z" class="st1"/><path id="AG_1_" d="M1840.7 1006.6c0 34.1-93.1 61.7-208 61.7-114.8 0-207.9-27.6-207.9-61.7s93.1-61.7 207.9-61.7c114.9 0 208 27.6 208 61.7z" class="st1"/><path d="M1840.7 1006.6c0 32.2-87.9 58.3-196.2 58.3-108.4 0-196.2-26.1-196.2-58.3s87.8-58.2 196.2-58.2c108.3 0 196.2 26.1 196.2 58.2z" class="st1"/><path d="M1696.9 1003.9c-22.6-7-58.1-7.7-81.6-8.2-10.3-.2-17.9-1.5-20.7-3.5-3-2.1-.4-4.9 6.9-7.4 6.5-2.2 18.5-3.5 33-3.6 16-.1 27.4 1.3 29.9 2 5 2.5 15.9 3.4 24.6 2 9-1.4 12.3-4.8 7.5-7.4-9.6-5.3-34.3-6.9-46.4-7.3v-4.9c0-3-8.3-5.5-18.4-5.5-10.2 0-18.4 2.4-18.4 5.5v5.4c-16.1 1.1-29.9 3.4-39.6 6.6-16.7 5.7-21.6 12.7-13.1 18.8 8.2 5.9 27.7 9.7 52.1 10.2 19 .4 44.9 1 57.7 4.9 6.8 2.1 10.2 4.9 9.7 8s-5.1 6.1-12.6 8.2c-14.1 4-36.9 5.5-56.8 3.6-8.9-.8-24.2-3.1-27.8-8.7-1.9-3-11.5-4.9-21.5-4.4-10 .6-16.6 3.4-14.7 6.4 5.2 8.2 24.5 14.5 52.8 17.2 4.5.4 9.1.7 13.7 1v5c0 3 8.3 5.5 18.4 5.5 10.2 0 18.4-2.4 18.4-5.5v-5.4c16.1-1.1 31.1-3.4 43-6.8 14.3-4.1 22.8-9.6 23.8-15.5 1.2-6.2-5.9-11.9-19.9-16.2z" class="st1"/><path d="M1709.7 1003.9c-22.6-6.9-58.1-7.7-81.6-8.2-10.3-.2-17.9-1.5-20.7-3.5-3-2.1-.4-4.9 6.9-7.4 6.5-2.2 18.5-3.5 33-3.6 16-.1 27.4 1.3 29.9 2 5 2.5 15.9 3.4 24.6 2 9-1.4 12.3-4.8 7.5-7.4-9.6-5.3-34.3-6.9-46.4-7.3v-4.9c0-3-8.3-5.5-18.4-5.5-10.2 0-18.5 2.4-18.5 5.5v5.4c-16.1 1.1-29.9 3.4-39.6 6.6-16.7 5.7-21.6 12.7-13.1 18.8 8.2 5.9 27.7 9.7 52.1 10.2 19 .4 44.9 1 57.7 4.9 6.8 2.1 10.2 4.9 9.7 8s-5.1 6.1-12.6 8.2c-14.1 4-36.9 5.5-56.8 3.6-8.8-.8-24.2-3.1-27.8-8.7-1.9-3-11.5-4.9-21.5-4.4-10 .6-16.6 3.4-14.7 6.4 5.2 8.2 24.5 14.5 52.9 17.2 4.5.4 9.1.7 13.7 1v5c0 3 8.3 5.5 18.5 5.5s18.4-2.4 18.4-5.5v-5.4c16.1-1.1 31.1-3.4 43-6.8 14.3-4.1 22.8-9.6 23.8-15.5 1.1-6.2-6-11.9-20-16.2zM1431.8 1022.5l-56.6 10.4c-9.6-8.3-14.8-17.1-14.8-26.3 0-.7.1-1.4.1-2l70.5-12.9c-4.1 4.8-6.2 9.8-6.2 15 0 5.4 2.4 10.8 7 15.8z" class="st1"/><path id="e_1_" d="m1827.1 950-56.6 10.4c-25.9-6.8-57.7-11.8-92.7-14l70.5-12.9c29.7 4 56.3 9.7 78.8 16.5z" class="st1"/><path id="E_8_" d="m1465.7 1043.4-54.9 10.1c-8.6-3.6-16.2-7.4-22.8-11.3l55.1-10.1c6.2 4 13.8 7.8 22.6 11.3z" class="st1"/><path id="AV_1_" d="m1873.2 968.7-54.9 10.1c-6.7-4-14.9-7.7-24.3-11.1l55.1-10.1c9 3.4 17.1 7.2 24.1 11.1z" class="st1"/><path id="AC_3_" d="m1587.7 1066.9-70.6 12.9c-24.3-3.4-46.6-7.8-66.3-13.1l57.8-10.6c23.1 5.2 49.9 8.9 79.1 10.8z" class="st1"/><path id="R_3_" d="m1905.1 1006.6-.1 2.1-70.9 13c4.3-4.8 6.6-9.9 6.6-15.1 0-3.7-1.2-7.3-3.4-10.8l58.1-10.7c6.3 6.9 9.7 14.1 9.7 21.5z" class="st1"/><path id="S_4_" d="M1632.7 1087.5c-150.4 0-272.3-36.2-272.3-80.8v63.7c0 44.6 121.9 80.8 272.3 80.8s272.3-36.2 272.3-80.8l-1-57.1c-11.2 41.5-128.3 74.2-271.3 74.2z" class="st1"/><path id="T_14_" d="M1396.1 1110.3c11.7 6.1 26 11.7 42.4 16.7v-63.7c-16.4-5-30.7-10.6-42.4-16.7v63.7z" class="st1"/><path id="m_5_" d="M1540.4 1082.7c-14.8-1.6-29-3.5-42.4-5.8v63.7c13.5 2.3 27.6 4.2 42.4 5.8v-63.7z" class="st1"/><path id="K_17_" d="M1476.3 1072.8c-7.3-1.5-14.4-3.2-21.2-4.9v63.7c6.8 1.7 13.9 3.4 21.2 4.9v-63.7z" class="st1"/><path id="L_11_" d="M1738.4 1144.8c19.9-2.5 38.5-5.7 55.7-9.4v-63.7c-17.1 3.7-35.8 6.9-55.7 9.4v63.7z" class="st1"/><path id="f_2_" d="M1854 1053.7c-11.6 4.8-25 9.2-39.8 13.2v63.7c14.8-3.9 28.2-8.4 39.8-13.1v-63.8z" class="st1"/><path id="s_3_" d="M1905.1 921.7c0 44.6-121.9 80.8-272.3 80.8s-272.3-36.2-272.3-80.8c0-44.7 121.9-80.8 272.3-80.8s272.3 36.2 272.3 80.8z" class="st1"/><path d="M1840.7 921.7c0 34.1-93.1 61.7-207.9 61.7s-207.9-27.6-207.9-61.7S1518 860 1632.8 860s207.9 27.7 207.9 61.7z" class="st1"/><path id="AH_1_" d="M1840.7 921.7c0 32.2-87.9 58.2-196.2 58.2-108.4 0-196.2-26.1-196.2-58.2 0-32.2 87.8-58.2 196.2-58.2 108.3 0 196.2 26.1 196.2 58.2z" class="st1"/><path d="M1696.9 919c-22.6-6.9-58.1-7.7-81.6-8.2-10.3-.2-17.9-1.5-20.7-3.5-3-2.1-.4-4.9 6.9-7.4 6.5-2.2 18.5-3.5 33-3.6 16-.1 27.4 1.3 29.9 2 5 2.5 15.9 3.4 24.6 2 9-1.4 12.3-4.8 7.5-7.4-9.6-5.3-34.3-6.9-46.4-7.3v-4.9c0-3-8.3-5.5-18.4-5.5-10.2 0-18.4 2.5-18.4 5.5v5.4c-16.1 1.1-29.9 3.4-39.6 6.7-16.6 5.7-21.6 12.7-13.1 18.8 8.2 5.9 27.7 9.7 52.1 10.2 19 .4 44.9 1 57.7 4.9 6.8 2.1 10.2 4.9 9.7 8s-5.1 6.1-12.6 8.2c-14.1 4-36.9 5.5-56.8 3.6-8.9-.8-24.2-3.1-27.8-8.7-1.9-3-11.5-4.9-21.5-4.4-10 .6-16.6 3.4-14.7 6.4 5.2 8.2 24.5 14.5 52.8 17.2 4.5.4 9.1.7 13.7 1v5c0 3 8.3 5.5 18.4 5.5 10.2 0 18.4-2.5 18.4-5.5v-5.4c16.1-1.1 31.1-3.4 43-6.7 14.3-4.1 22.8-9.6 23.8-15.5 1.2-6.4-5.9-12.1-19.9-16.4z" class="st1"/><path d="M1709.7 919c-22.6-6.9-58.1-7.7-81.6-8.2-10.3-.2-17.9-1.5-20.7-3.5-3-2.1-.4-4.9 6.9-7.4 6.5-2.2 18.5-3.5 33-3.6 16-.1 27.4 1.3 29.9 2 5 2.5 15.9 3.4 24.6 2 9-1.4 12.3-4.8 7.5-7.4-9.6-5.3-34.3-6.9-46.4-7.3v-4.9c0-3-8.3-5.5-18.4-5.5-10.2 0-18.5 2.4-18.5 5.5v5.4c-16.1 1.1-29.9 3.4-39.5 6.7-16.7 5.7-21.6 12.7-13.1 18.8 8.2 5.9 27.7 9.7 52.1 10.2 19 .4 44.9 1 57.7 4.9 6.8 2.1 10.2 4.9 9.7 8s-5.1 6.1-12.6 8.2c-14.1 4-36.9 5.5-56.8 3.6-8.8-.8-24.2-3.1-27.8-8.7-1.9-3-11.5-4.9-21.5-4.4-10 .6-16.6 3.4-14.7 6.4 5.2 8.2 24.4 14.5 52.8 17.2 4.5.4 9.1.7 13.7 1v5c0 3 8.3 5.5 18.5 5.5s18.4-2.5 18.4-5.5v-5.4c16.1-1.1 31.1-3.4 43-6.7 14.3-4.1 22.8-9.6 23.8-15.5 1.1-6.4-6-12.1-20-16.4z" class="st1"/><path id="AL" d="m1431.8 937.7-56.6 10.4c-9.6-8.2-14.8-17.1-14.8-26.3 0-.7.1-1.4.1-2l70.5-12.9c-4.1 4.8-6.2 9.8-6.2 15 0 5.3 2.4 10.7 7 15.8z" class="st1"/><path d="m1827.1 865.1-56.5 10.4c-25.9-6.8-57.7-11.8-92.7-14l70.5-12.9c29.6 4 56.2 9.7 78.7 16.5z" class="st1"/><path id="E_9_" d="m1465.7 958.5-54.9 10.1c-8.6-3.6-16.2-7.4-22.8-11.3l55.1-10.1c6.2 4 13.8 7.8 22.6 11.3z" class="st1"/><path id="AB_4_" d="m1873.2 883.8-54.9 10.1c-6.7-4-14.9-7.7-24.3-11.1l55.1-10.1c9 3.5 17.1 7.2 24.1 11.1z" class="st1"/><path id="AC_4_" d="m1587.7 982-70.6 12.9c-24.3-3.4-46.6-7.8-66.3-13.1l57.8-10.6c23.1 5.2 49.9 8.9 79.1 10.8z" class="st1"/><path id="R_4_" d="m1905.1 921.7-.1 2.1-70.9 13c4.3-4.8 6.6-9.9 6.6-15.1 0-3.7-1.2-7.3-3.4-10.8l58.1-10.7c6.3 6.9 9.7 14.1 9.7 21.5z" class="st1"/><path id="S_5_" d="M1632.7 1002.6c-150.4 0-272.3-36.2-272.3-80.8v63.7c0 44.6 121.9 80.8 272.3 80.8s272.3-36.2 272.3-80.8l-1-57.1c-11.2 41.5-128.3 74.2-271.3 74.2z" class="st1"/><path id="T_15_" d="M1396.1 1025.4c11.7 6.1 26 11.7 42.4 16.7v-63.7c-16.4-5-30.7-10.6-42.4-16.7v63.7z" class="st1"/><path id="AX_1_" d="M1540.4 997.8c-14.8-1.6-29-3.5-42.4-5.8v63.7c13.5 2.3 27.6 4.2 42.4 5.8v-63.7z" class="st1"/><path id="AY_1_" d="M1476.3 987.9c-7.3-1.5-14.4-3.2-21.2-4.9v63.7c6.8 1.7 13.9 3.4 21.2 4.9v-63.7z" class="st1"/><path d="M1738.4 1060c19.9-2.5 38.5-5.7 55.7-9.4v-63.7c-17.1 3.7-35.8 6.9-55.7 9.4v63.7z" class="st1"/><path id="AZ_1_" d="M1854 968.8c-11.6 4.8-25 9.2-39.8 13.2v63.7c14.8-3.9 28.2-8.3 39.8-13.2v-63.7z" class="st1"/><path id="y_1_" d="M1905.1 843.7c0 44.6-121.9 80.8-272.3 80.8s-272.3-36.2-272.3-80.8 121.9-80.8 272.3-80.8c150.4-.1 272.3 36.1 272.3 80.8z" class="st1"/><path d="M1840.7 843.7c0 34.1-93.1 61.7-207.9 61.7s-207.9-27.6-207.9-61.7S1518 782 1632.8 782c114.8-.1 207.9 27.6 207.9 61.7z" class="st1"/><path id="AE_2_" d="M1840.7 843.7c0 32.2-87.9 58.2-196.2 58.2-108.4 0-196.2-26.1-196.2-58.2 0-32.2 87.8-58.2 196.2-58.2 108.3-.1 196.2 26 196.2 58.2z" class="st1"/><path d="M1696.9 840.9c-22.6-6.9-58.1-7.7-81.6-8.2-10.3-.2-17.9-1.5-20.7-3.5-3-2.1-.4-4.9 6.9-7.4 6.5-2.2 18.5-3.5 33-3.6 16-.1 27.4 1.3 29.9 2 5 2.5 15.9 3.4 24.6 2 9-1.4 12.3-4.7 7.5-7.4-9.6-5.3-34.3-6.9-46.4-7.3v-4.9c0-3-8.3-5.5-18.4-5.5-10.2 0-18.4 2.5-18.4 5.5v5.4c-16.1 1.1-29.9 3.3-39.6 6.6-16.6 5.7-21.6 12.7-13.1 18.8 8.2 5.9 27.7 9.7 52.1 10.2 19 .4 44.9 1 57.7 4.9 6.8 2.1 10.2 4.9 9.7 8s-5.1 6.1-12.6 8.2c-14.1 4-36.9 5.5-56.8 3.6-8.9-.8-24.2-3.1-27.8-8.7-1.9-3-11.5-4.9-21.5-4.4-10 .6-16.6 3.4-14.7 6.4 5.2 8.2 24.5 14.5 52.8 17.2 4.5.4 9.1.7 13.7 1v5c0 3 8.3 5.5 18.4 5.5 10.2 0 18.4-2.4 18.4-5.5v-5.4c16.1-1.1 31.1-3.4 43-6.8 14.3-4.1 22.8-9.6 23.8-15.5 1.2-6.1-5.9-11.9-19.9-16.2z" class="st1"/><path d="M1709.7 840.9c-22.6-6.9-58.1-7.7-81.6-8.2-10.3-.2-17.9-1.5-20.7-3.5-3-2.1-.4-4.9 6.9-7.4 6.5-2.2 18.5-3.5 33-3.6 16-.1 27.4 1.3 29.9 2 5 2.5 15.9 3.4 24.6 2 9-1.4 12.3-4.7 7.5-7.4-9.6-5.3-34.3-6.9-46.4-7.3v-4.9c0-3-8.3-5.5-18.4-5.5-10.2 0-18.5 2.5-18.5 5.5v5.4c-16.1 1.1-29.9 3.3-39.5 6.6-16.7 5.7-21.6 12.7-13.1 18.8 8.2 5.9 27.7 9.7 52.1 10.2 19 .4 44.9 1 57.7 4.9 6.8 2.1 10.2 4.9 9.7 8s-5.1 6.1-12.6 8.2c-14.1 4-36.9 5.5-56.8 3.6-8.8-.8-24.2-3.1-27.8-8.7-1.9-3-11.5-4.9-21.5-4.4-10 .6-16.6 3.4-14.7 6.4 5.2 8.2 24.4 14.5 52.8 17.2 4.5.4 9.1.7 13.7 1v5c0 3 8.3 5.5 18.5 5.5s18.4-2.4 18.4-5.5v-5.4c16.1-1.1 31.1-3.4 43-6.8 14.3-4.1 22.8-9.6 23.8-15.5 1.1-6.1-6-11.9-20-16.2z" class="st1"/><path id="AA_2_" d="m1431.8 859.6-56.6 10.4c-9.6-8.2-14.8-17.1-14.8-26.3 0-.7.1-1.4.1-2l70.5-12.9c-4.1 4.8-6.2 9.8-6.2 15 0 5.4 2.4 10.7 7 15.8z" class="st1"/><path d="m1827.1 787.1-56.5 10.4c-25.9-6.8-57.7-11.8-92.7-14.1l70.5-12.9c29.6 4.1 56.2 9.7 78.7 16.6z" class="st1"/><path id="E_10_" d="m1465.7 880.4-54.9 10.1c-8.6-3.6-16.2-7.4-22.8-11.3l55.1-10.1c6.2 4 13.8 7.8 22.6 11.3z" class="st1"/><path id="AB_5_" d="m1873.2 805.7-54.9 10.1c-6.7-4-14.9-7.7-24.3-11.1l55.1-10.1c9 3.5 17.1 7.2 24.1 11.1z" class="st1"/><path id="AC_5_" d="m1587.7 903.9-70.6 12.9c-24.3-3.4-46.6-7.8-66.3-13.1l57.8-10.6c23.1 5.2 49.9 8.9 79.1 10.8z" class="st1"/><path d="M1905.1 843.7c0 .7-.1 1.4-.1 2l-70.9 13c4.3-4.8 6.6-9.9 6.6-15.1 0-3.7-1.2-7.3-3.4-10.8l58.1-10.7c6.3 7 9.7 14.1 9.7 21.6z" class="st1"/><path d="M1632.7 924.5c-150.4 0-272.3-36.2-272.3-80.8v63.7c0 44.6 121.9 80.8 272.3 80.8S1905 952 1905 907.4l-1-57.1c-11.2 41.5-128.3 74.2-271.3 74.2z" class="st1"/><path id="T_16_" d="M1396.1 947.3c11.7 6.1 26 11.7 42.4 16.7v-63.7c-16.4-5-30.7-10.6-42.4-16.7v63.7z" class="st1"/><path id="Aa_1_" d="M1540.4 919.7c-14.8-1.6-29-3.5-42.4-5.8v63.7c13.5 2.3 27.6 4.2 42.4 5.8v-63.7z" class="st1"/><path id="Ab_1_" d="M1476.3 909.8c-7.3-1.5-14.4-3.2-21.2-4.9v63.7c6.8 1.7 13.9 3.4 21.2 4.9v-63.7z" class="st1"/><path id="L_12_" d="M1738.4 981.9c19.9-2.5 38.5-5.7 55.7-9.4v-63.7c-17.1 3.7-35.8 6.9-55.7 9.4v63.7z" class="st1"/><path id="Ac_1_" d="M1854 890.7c-11.6 4.8-25 9.2-39.8 13.2v63.7c14.8-3.9 28.2-8.3 39.8-13.1v-63.8z" class="st1"/><path id="A_6_" d="M1905.1 766.9c0 44.6-121.9 80.8-272.3 80.8s-272.3-36.2-272.3-80.8 121.9-80.8 272.3-80.8 272.3 36.1 272.3 80.8z" class="st1"/><path id="AG_2_" d="M1840.7 766.9c0 34.1-93.1 61.7-208 61.7-114.8 0-207.9-27.6-207.9-61.7s93.1-61.7 207.9-61.7c114.9 0 208 27.6 208 61.7z" class="st1"/><path id="AE_3_" d="M1840.7 766.9c0 32.2-87.9 58.2-196.2 58.2-108.4 0-196.2-26.1-196.2-58.2 0-32.2 87.8-58.2 196.2-58.2 108.3-.1 196.2 26 196.2 58.2z" class="st1"/><path id="AI_1_" d="M1696.9 764.2c-22.6-6.9-58.1-7.7-81.6-8.2-10.3-.2-17.9-1.5-20.7-3.5-3-2.1-.4-4.9 6.9-7.4 6.5-2.2 18.5-3.5 33-3.6 16-.1 27.4 1.3 29.9 2 5 2.5 15.9 3.4 24.6 2 9-1.4 12.3-4.8 7.5-7.4-9.6-5.3-34.3-6.9-46.4-7.3v-4.9c0-3-8.3-5.5-18.4-5.5-10.2 0-18.4 2.4-18.4 5.5v5.4c-16.1 1.1-29.9 3.4-39.6 6.6-16.7 5.7-21.6 12.7-13.1 18.8 8.2 5.9 27.7 9.7 52.1 10.2 19 .4 44.9 1 57.7 4.9 6.8 2.1 10.2 4.9 9.7 8s-5.1 6.1-12.6 8.2c-14.1 4-36.9 5.5-56.8 3.6-8.9-.8-24.2-3.1-27.8-8.8-1.9-3-11.5-4.9-21.5-4.4-10 .6-16.6 3.4-14.7 6.4 5.2 8.2 24.5 14.5 52.8 17.2 4.5.4 9.1.7 13.7 1v5c0 3 8.3 5.5 18.4 5.5 10.2 0 18.4-2.5 18.4-5.5v-5.4c16.1-1.1 31.1-3.4 43-6.8 14.3-4.1 22.8-9.6 23.8-15.5 1.2-6.1-5.9-11.8-19.9-16.1z" class="st1"/><path id="AJ_1_" d="M1709.7 764.2c-22.6-6.9-58.1-7.7-81.6-8.2-10.3-.2-17.9-1.5-20.7-3.5-3-2.1-.4-4.9 6.9-7.4 6.5-2.2 18.5-3.5 33-3.6 16-.1 27.4 1.3 29.9 2 5 2.5 15.9 3.4 24.6 2 9-1.4 12.3-4.8 7.5-7.4-9.6-5.3-34.3-6.9-46.4-7.3v-4.9c0-3-8.3-5.5-18.4-5.5-10.2 0-18.5 2.4-18.5 5.5v5.4c-16.1 1.1-29.9 3.4-39.6 6.6-16.7 5.7-21.6 12.7-13.1 18.8 8.2 5.9 27.7 9.7 52.1 10.2 19 .4 44.9 1 57.7 4.9 6.8 2.1 10.2 4.9 9.7 8s-5.1 6.1-12.6 8.2c-14.1 4-36.9 5.5-56.8 3.6-8.8-.8-24.2-3.1-27.8-8.8-1.9-3-11.5-4.9-21.5-4.4-10 .6-16.6 3.4-14.7 6.4 5.2 8.2 24.5 14.5 52.9 17.2 4.5.4 9.1.7 13.7 1v5c0 3 8.3 5.5 18.5 5.5s18.4-2.5 18.4-5.5v-5.4c16.1-1.1 31.1-3.4 43-6.8 14.3-4.1 22.8-9.6 23.8-15.5 1.1-6.1-6-11.8-20-16.1z" class="st1"/><path d="m1431.8 782.8-56.6 10.4c-9.6-8.2-14.8-17.1-14.8-26.3 0-.7.1-1.4.1-2L1431 752c-4.1 4.8-6.2 9.8-6.2 15 0 5.4 2.4 10.7 7 15.8z" class="st1"/><path id="V_3_" d="m1827.1 710.3-56.6 10.4c-25.9-6.8-57.7-11.7-92.7-14l70.5-12.9c29.7 4 56.3 9.7 78.8 16.5z" class="st1"/><path id="Q_9_" d="m1465.7 803.7-54.9 10.1c-8.6-3.6-16.2-7.4-22.8-11.3l55.1-10.1c6.2 3.9 13.8 7.7 22.6 11.3z" class="st1"/><path id="AB_6_" d="m1873.2 728.9-54.9 10.1c-6.7-4-14.9-7.7-24.3-11.1l55.1-10.1c9 3.5 17.1 7.2 24.1 11.1z" class="st1"/><path id="Ah_1_" d="m1587.7 827.2-70.6 12.9c-24.3-3.4-46.6-7.8-66.3-13.1l57.8-10.6c23.1 5.1 49.9 8.8 79.1 10.8z" class="st1"/><path id="AM" d="M1905.1 766.9c0 .7-.1 1.4-.1 2l-70.9 13c4.3-4.8 6.6-9.9 6.6-15.1 0-3.7-1.2-7.3-3.4-10.8l58.1-10.7c6.3 7 9.7 14.2 9.7 21.6z" class="st1"/><path id="S_6_" d="M1632.7 847.7c-150.4 0-272.3-36.2-272.3-80.8v63.7c0 44.6 121.9 80.8 272.3 80.8s272.3-36.2 272.3-80.8l-1-57.1c-11.2 41.5-128.3 74.2-271.3 74.2z" class="st1"/><path id="T_17_" d="M1396.1 870.6c11.7 6.1 26 11.7 42.4 16.7v-63.7c-16.4-5-30.7-10.6-42.4-16.7v63.7z" class="st1"/><path id="Ad_1_" d="M1540.4 843c-14.8-1.6-29-3.6-42.4-5.8v63.7c13.5 2.3 27.6 4.2 42.4 5.8V843z" class="st1"/><path id="Ae_1_" d="M1476.3 833c-7.3-1.5-14.4-3.2-21.2-4.9v63.7c6.8 1.7 13.9 3.4 21.2 4.9V833z" class="st1"/><path id="Af_1_" d="M1738.4 905.1c19.9-2.5 38.5-5.7 55.7-9.4V832c-17.1 3.7-35.8 6.9-55.7 9.4v63.7z" class="st1"/><path id="Ag_1_" d="M1854 814c-11.6 4.8-25 9.2-39.8 13.1v63.7c14.8-3.9 28.2-8.4 39.8-13.2V814z" class="st1"/><path id="AN" d="M1905.1 688.9c0 44.6-121.9 80.8-272.3 80.8s-272.3-36.2-272.3-80.8 121.9-80.8 272.3-80.8 272.3 36.2 272.3 80.8z" class="st1"/><path id="AO" d="M1840.7 688.9c0 34.1-93.1 61.7-207.9 61.7s-207.9-27.6-207.9-61.7 93.1-61.7 207.9-61.7 207.9 27.7 207.9 61.7z" class="st1"/><path id="AH_2_" d="M1840.7 688.9c0 32.2-87.9 58.2-196.2 58.2-108.4 0-196.2-26.1-196.2-58.2 0-32.2 87.8-58.2 196.2-58.2 108.3 0 196.2 26.1 196.2 58.2z" class="st1"/><path d="M1696.9 686.2c-22.6-6.9-58.1-7.7-81.6-8.2-10.3-.2-17.9-1.5-20.7-3.5-3-2.1-.4-4.9 6.9-7.4 6.5-2.2 18.5-3.5 33-3.6 16-.1 27.4 1.3 29.9 2 5 2.5 15.9 3.4 24.6 2 9-1.4 12.3-4.8 7.5-7.4-9.6-5.3-34.3-6.9-46.4-7.3v-4.9c0-3-8.3-5.5-18.4-5.5-10.2 0-18.4 2.4-18.4 5.5v5.4c-16.1 1.1-29.9 3.4-39.6 6.6-16.6 5.7-21.6 12.7-13.1 18.8 8.2 5.9 27.7 9.7 52.1 10.2 19 .4 44.9 1 57.7 4.9 6.8 2.1 10.2 4.9 9.7 8s-5.1 6.1-12.6 8.2c-14.1 4-36.9 5.5-56.8 3.6-8.9-.8-24.2-3.1-27.8-8.8-1.9-3-11.5-4.9-21.5-4.4-10 .6-16.6 3.4-14.7 6.4 5.2 8.2 24.5 14.5 52.8 17.2 4.5.4 9.1.7 13.7 1v5c0 3 8.3 5.5 18.4 5.5 10.2 0 18.4-2.5 18.4-5.5v-5.4c16.1-1.1 31.1-3.4 43-6.8 14.3-4.1 22.8-9.6 23.8-15.5 1.2-6.1-5.9-11.8-19.9-16.1z" class="st1"/><path d="M1709.7 686.2c-22.6-6.9-58.1-7.7-81.6-8.2-10.3-.2-17.9-1.5-20.7-3.5-3-2.1-.4-4.9 6.9-7.4 6.5-2.2 18.5-3.5 33-3.6 16-.1 27.4 1.3 29.9 2 5 2.5 15.9 3.4 24.6 2 9-1.4 12.3-4.8 7.5-7.4-9.6-5.3-34.3-6.9-46.4-7.3v-4.9c0-3-8.3-5.5-18.4-5.5-10.2 0-18.5 2.4-18.5 5.5v5.4c-16.1 1.1-29.9 3.4-39.5 6.6-16.7 5.7-21.6 12.7-13.1 18.8 8.2 5.9 27.7 9.7 52.1 10.2 19 .4 44.9 1 57.7 4.9 6.8 2.1 10.2 4.9 9.7 8s-5.1 6.1-12.6 8.2c-14.1 4-36.9 5.5-56.8 3.6-8.8-.8-24.2-3.1-27.8-8.8-1.9-3-11.5-4.9-21.5-4.4-10 .6-16.6 3.4-14.7 6.4 5.2 8.2 24.4 14.5 52.8 17.2 4.5.4 9.1.7 13.7 1v5c0 3 8.3 5.5 18.5 5.5s18.4-2.5 18.4-5.5v-5.4c16.1-1.1 31.1-3.4 43-6.8 14.3-4.1 22.8-9.6 23.8-15.5 1.1-6.1-6-11.8-20-16.1zM1431.8 704.9l-56.6 10.4c-9.6-8.2-14.8-17.1-14.8-26.3 0-.7.1-1.4.1-2l70.5-13c-4.1 4.8-6.2 9.8-6.2 15 0 5.4 2.4 10.8 7 15.9z" class="st1"/><path id="AK_1_" d="m1827.1 632.4-56.5 10.4c-25.9-6.8-57.7-11.7-92.7-14l70.5-12.9c29.6 4 56.2 9.6 78.7 16.5z" class="st1"/><path id="E_11_" d="m1465.7 725.7-54.9 10.1c-8.6-3.6-16.2-7.4-22.8-11.3l55.1-10.1c6.2 4 13.8 7.8 22.6 11.3z" class="st1"/><path id="AB_7_" d="m1873.2 651-54.9 10.1c-6.7-4-14.9-7.7-24.3-11.1l55.1-10.1c9 3.5 17.1 7.2 24.1 11.1z" class="st1"/><path id="AC_6_" d="m1587.7 749.2-70.6 12.9c-24.3-3.4-46.6-7.8-66.3-13.1l57.8-10.6c23.1 5.2 49.9 8.9 79.1 10.8z" class="st1"/><path id="Z_2_" d="M1905.1 688.9c0 .7-.1 1.4-.1 2l-70.9 13c4.3-4.8 6.6-9.8 6.6-15.1 0-3.7-1.2-7.3-3.4-10.8l58.1-10.7c6.3 7 9.7 14.2 9.7 21.6z" class="st1"/><path id="S_7_" d="M1632.7 769.8c-150.4 0-272.3-36.2-272.3-80.8v63.7c0 44.6 121.9 80.8 272.3 80.8s272.3-36.2 272.3-80.8l-1-57.1c-11.2 41.5-128.3 74.2-271.3 74.2z" class="st1"/><path id="T_18_" d="M1396.1 792.6c11.7 6.1 26 11.7 42.4 16.7v-63.7c-16.4-5-30.7-10.6-42.4-16.7v63.7z" class="st1"/><path d="M1540.4 765c-14.8-1.6-29-3.6-42.4-5.8v63.7c13.5 2.3 27.6 4.2 42.4 5.8V765zM1476.3 755.1c-7.3-1.5-14.4-3.2-21.2-4.9v63.7c6.8 1.7 13.9 3.4 21.2 4.9v-63.7zM1738.4 827.2c19.9-2.5 38.5-5.7 55.7-9.4V754c-17.1 3.7-35.8 6.9-55.7 9.4v63.8zM1854 736c-11.6 4.8-25 9.2-39.8 13.2v63.7c14.8-3.9 28.2-8.3 39.8-13.2V736z" class="st1"/><path id="AD_1_" d="M1905.1 610.9c0 44.7-121.9 80.8-272.3 80.8s-272.3-36.2-272.3-80.8 121.9-80.8 272.3-80.8c150.4-.1 272.3 36.1 272.3 80.8z" class="st1"/><path id="g_4_" d="M1840.7 610.9c0 34.1-93.1 61.7-207.9 61.7s-207.9-27.6-207.9-61.7 93.1-61.7 207.9-61.7c114.8-.1 207.9 27.6 207.9 61.7z" class="st1"/><path id="AE_4_" d="M1840.7 610.9c0 32.2-87.9 58.2-196.2 58.2-108.4 0-196.2-26.1-196.2-58.2 0-32.2 87.8-58.2 196.2-58.2 108.3-.1 196.2 26 196.2 58.2z" class="st1"/><path d="M1696.9 608.1c-22.6-6.9-58.1-7.7-81.6-8.2-10.3-.2-17.9-1.5-20.7-3.5-3-2.1-.4-4.9 6.9-7.4 6.5-2.2 18.5-3.5 33-3.6 16-.1 27.4 1.3 29.9 2 5 2.5 15.9 3.4 24.6 2 9-1.4 12.3-4.8 7.5-7.4-9.6-5.3-34.3-6.9-46.4-7.3v-4.9c0-3-8.3-5.5-18.4-5.5-10.2 0-18.4 2.5-18.4 5.5v5.4c-16.1 1.1-29.9 3.4-39.6 6.6-16.6 5.7-21.6 12.7-13.1 18.8 8.2 5.9 27.7 9.7 52.1 10.2 19 .4 44.9 1 57.7 4.9 6.8 2.1 10.2 4.9 9.7 8s-5.1 6.1-12.6 8.2c-14.1 4-36.9 5.5-56.8 3.6-8.9-.8-24.2-3.1-27.8-8.7-1.9-3-11.5-4.9-21.5-4.4-10 .6-16.6 3.4-14.7 6.4 5.2 8.2 24.5 14.5 52.8 17.2 4.5.4 9.1.7 13.7 1v5c0 3 8.3 5.5 18.4 5.5 10.2 0 18.4-2.4 18.4-5.5v-5.4c16.1-1.1 31.1-3.4 43-6.8 14.3-4.1 22.8-9.6 23.8-15.5 1.2-6.1-5.9-11.9-19.9-16.2z" class="st1"/><path d="M1709.7 608.1c-22.6-6.9-58.1-7.7-81.6-8.2-10.3-.2-17.9-1.5-20.7-3.5-3-2.1-.4-4.9 6.9-7.4 6.5-2.2 18.5-3.5 33-3.6 16-.1 27.4 1.3 29.9 2 5 2.5 15.9 3.4 24.6 2 9-1.4 12.3-4.8 7.5-7.4-9.6-5.3-34.3-6.9-46.4-7.3v-4.9c0-3-8.3-5.5-18.4-5.5-10.2 0-18.5 2.5-18.5 5.5v5.4c-16.1 1.1-29.9 3.4-39.5 6.6-16.7 5.7-21.6 12.7-13.1 18.8 8.2 5.9 27.7 9.7 52.1 10.2 19 .4 44.9 1 57.7 4.9 6.8 2.1 10.2 4.9 9.7 8s-5.1 6.1-12.6 8.2c-14.1 4-36.9 5.5-56.8 3.6-8.8-.8-24.2-3.1-27.8-8.7-1.9-3-11.5-4.9-21.5-4.4-10 .6-16.6 3.4-14.7 6.4 5.2 8.2 24.4 14.5 52.8 17.2 4.5.4 9.1.7 13.7 1v5c0 3 8.3 5.5 18.5 5.5s18.4-2.4 18.4-5.5v-5.4c16.1-1.1 31.1-3.4 43-6.8 14.3-4.1 22.8-9.6 23.8-15.5 1.1-6.1-6-11.9-20-16.2zM1431.8 626.8l-56.6 10.4c-9.6-8.2-14.8-17.1-14.8-26.3 0-.7.1-1.4.1-2L1431 596c-4.1 4.8-6.2 9.8-6.2 15 0 5.4 2.4 10.7 7 15.8zm395.3-72.5-56.5 10.4c-25.9-6.8-57.7-11.8-92.7-14l70.5-12.9c29.6 4 56.2 9.6 78.7 16.5z" class="st1"/><path id="Q_10_" d="m1465.7 647.7-54.9 10.1c-8.6-3.6-16.2-7.4-22.8-11.3l55.1-10.1c6.2 3.9 13.8 7.7 22.6 11.3z" class="st1"/><path id="AB_8_" d="m1873.2 572.9-54.9 10.1c-6.7-4-14.9-7.7-24.3-11.1l55.1-10.1c9 3.5 17.1 7.2 24.1 11.1z" class="st1"/><path id="AC_7_" d="m1587.7 671.1-70.6 12.9c-24.3-3.4-46.6-7.8-66.3-13.1l57.8-10.6c23.1 5.2 49.9 8.9 79.1 10.8z" class="st1"/><path id="AP" d="m1905.1 610.9-.1 2.1-70.9 13c4.3-4.8 6.6-9.8 6.6-15.1 0-3.7-1.2-7.3-3.4-10.8l58.1-10.7c6.3 6.9 9.7 14 9.7 21.5z" class="st1"/><path id="S_8_" d="M1632.7 691.7c-150.4 0-272.3-36.2-272.3-80.8v63.7c0 44.6 121.9 80.8 272.3 80.8s272.3-36.2 272.3-80.8l-1-57.1c-11.2 41.5-128.3 74.2-271.3 74.2z" class="st1"/><path id="T_19_" d="M1396.1 714.5c11.7 6.1 26 11.7 42.4 16.7v-63.7c-16.4-5-30.7-10.6-42.4-16.7v63.7z" class="st1"/><path d="M1540.4 686.9c-14.8-1.6-29-3.5-42.4-5.8v63.7c13.5 2.3 27.6 4.3 42.4 5.8v-63.7zM1476.3 677c-7.3-1.5-14.4-3.2-21.2-4.9v63.7c6.8 1.7 13.9 3.4 21.2 4.9V677zM1738.4 749.1c19.9-2.5 38.5-5.7 55.7-9.4V676c-17.1 3.7-35.8 6.9-55.7 9.4v63.7zM1854 658c-11.6 4.8-25 9.2-39.8 13.2v63.7c14.8-3.9 28.2-8.4 39.8-13.2V658z" class="st1"/><path id="AN_1_" d="M1905.1 534.1c0 44.6-121.9 80.8-272.3 80.8s-272.3-36.2-272.3-80.8 121.9-80.8 272.3-80.8 272.3 36.2 272.3 80.8z" class="st1"/><path id="AG_3_" d="M1840.7 534.1c0 34.1-93.1 61.7-208 61.7-114.8 0-207.9-27.6-207.9-61.7s93.1-61.7 207.9-61.7c114.9 0 208 27.6 208 61.7z" class="st1"/><path d="M1840.7 534.1c0 32.2-87.9 58.2-196.2 58.2-108.4 0-196.2-26.1-196.2-58.2 0-32.2 87.8-58.2 196.2-58.2 108.3 0 196.2 26 196.2 58.2z" class="st1"/><path d="M1696.9 531.4c-22.6-6.9-58.1-7.7-81.6-8.2-10.3-.2-17.9-1.5-20.7-3.5-3-2.1-.4-4.9 6.9-7.4 6.5-2.2 18.5-3.5 33-3.6 16-.1 27.4 1.3 29.9 2 5 2.5 15.9 3.4 24.6 2 9-1.4 12.3-4.8 7.5-7.4-9.6-5.3-34.3-6.9-46.4-7.3v-5c0-3-8.3-5.5-18.4-5.5-10.2 0-18.4 2.4-18.4 5.5v5.4c-16.1 1.1-29.9 3.4-39.6 6.6-16.7 5.7-21.6 12.7-13.1 18.8 8.2 5.9 27.7 9.7 52.1 10.2 19 .4 44.9 1 57.7 4.9 6.8 2.1 10.2 4.9 9.7 8s-5.1 6.1-12.6 8.2c-14.1 4-36.9 5.5-56.8 3.6-8.9-.8-24.2-3.1-27.8-8.7-1.9-3-11.5-4.9-21.5-4.4-10 .6-16.6 3.4-14.7 6.4 5.2 8.2 24.5 14.5 52.8 17.2 4.5.4 9.1.7 13.7 1v5c0 3 8.3 5.5 18.4 5.5 10.2 0 18.4-2.4 18.4-5.5v-5.4c16.1-1.1 31.1-3.4 43-6.8 14.3-4.1 22.8-9.6 23.8-15.5 1.2-6.1-5.9-11.8-19.9-16.1z" class="st1"/><path d="M1709.7 531.4c-22.6-6.9-58.1-7.7-81.6-8.2-10.3-.2-17.9-1.5-20.7-3.5-3-2.1-.4-4.9 6.9-7.4 6.5-2.2 18.5-3.5 33-3.6 16-.1 27.4 1.3 29.9 2 5 2.5 15.9 3.4 24.6 2 9-1.4 12.3-4.8 7.5-7.4-9.6-5.3-34.3-6.9-46.4-7.3v-5c0-3-8.3-5.5-18.4-5.5-10.2 0-18.5 2.4-18.5 5.5v5.4c-16.1 1.1-29.9 3.4-39.6 6.6-16.7 5.7-21.6 12.7-13.1 18.8 8.2 5.9 27.7 9.7 52.1 10.2 19 .4 44.9 1 57.7 4.9 6.8 2.1 10.2 4.9 9.7 8s-5.1 6.1-12.6 8.2c-14.1 4-36.9 5.5-56.8 3.6-8.8-.8-24.2-3.1-27.8-8.7-1.9-3-11.5-4.9-21.5-4.4-10 .6-16.6 3.4-14.7 6.4 5.2 8.2 24.5 14.5 52.9 17.2 4.5.4 9.1.7 13.7 1v5c0 3 8.3 5.5 18.5 5.5s18.4-2.4 18.4-5.5v-5.4c16.1-1.1 31.1-3.4 43-6.8 14.3-4.1 22.8-9.6 23.8-15.5 1.1-6.1-6-11.8-20-16.1z" class="st1"/><path id="AF_2_" d="m1431.8 550-56.6 10.4c-9.6-8.3-14.8-17.1-14.8-26.3 0-.7.1-1.4.1-2l70.5-12.9c-4.1 4.8-6.2 9.8-6.2 15 0 5.4 2.4 10.7 7 15.8z" class="st1"/><path d="m1827.1 477.5-56.6 10.4c-25.9-6.8-57.7-11.8-92.7-14.1l70.5-12.9c29.7 4.1 56.3 9.8 78.8 16.6zM1465.7 570.9l-54.9 10.1c-8.6-3.6-16.2-7.4-22.8-11.4l55.1-10.1c6.2 4 13.8 7.9 22.6 11.4z" class="st1"/><path id="AB_9_" d="m1873.2 496.1-54.9 10.1c-6.7-4-14.9-7.7-24.3-11.1l55.1-10.1c9 3.5 17.1 7.2 24.1 11.1z" class="st1"/><path d="m1587.7 594.4-70.6 12.9c-24.3-3.4-46.6-7.8-66.3-13.1l57.8-10.6c23.1 5.1 49.9 8.9 79.1 10.8z" class="st1"/><path id="AQ" d="m1905.1 534.1-.1 2.1-70.9 13c4.3-4.8 6.6-9.9 6.6-15.1 0-3.7-1.2-7.3-3.4-10.8l58.1-10.6c6.3 6.8 9.7 14 9.7 21.4z" class="st1"/><path id="S_9_" d="M1632.7 614.9c-150.4 0-272.3-36.2-272.3-80.8v63.7c0 44.6 121.9 80.8 272.3 80.8s272.3-36.2 272.3-80.8l-1-57.1c-11.2 41.5-128.3 74.2-271.3 74.2z" class="st1"/><path id="T_20_" d="M1396.1 637.8c11.7 6.1 26 11.7 42.4 16.7v-63.7c-16.4-5-30.7-10.6-42.4-16.7v63.7z" class="st1"/><path d="M1540.4 610.2c-14.8-1.6-29-3.5-42.4-5.8V668c13.5 2.3 27.6 4.2 42.4 5.8v-63.6zM1476.3 600.2c-7.3-1.5-14.4-3.2-21.2-4.9V659c6.8 1.7 13.9 3.4 21.2 4.9v-63.7z" class="st1"/><path id="L_13_" d="M1738.4 672.3c19.9-2.5 38.5-5.7 55.7-9.4v-63.7c-17.1 3.7-35.8 6.9-55.7 9.4v63.7z" class="st1"/><path d="M1854 581.2c-11.6 4.8-25 9.2-39.8 13.2v63.7c14.8-3.9 28.2-8.4 39.8-13.2v-63.7z" class="st1"/><path id="AN_2_" d="M1905.1 457.3c0 44.6-121.9 80.8-272.3 80.8s-272.3-36.2-272.3-80.8 121.9-80.8 272.3-80.8 272.3 36.2 272.3 80.8z" class="st1"/><path id="AO_1_" d="M1840.7 457.3c0 34.1-93.1 61.7-207.9 61.7s-207.9-27.6-207.9-61.7 93.1-61.7 207.9-61.7 207.9 27.7 207.9 61.7z" class="st1"/><path d="M1840.7 457.3c0 32.2-87.9 58.2-196.2 58.2-108.4 0-196.2-26.1-196.2-58.2s87.8-58.2 196.2-58.2c108.3 0 196.2 26.1 196.2 58.2z" class="st1"/><path d="M1696.9 454.6c-22.6-6.9-58.1-7.7-81.6-8.2-10.3-.2-17.9-1.5-20.7-3.5-3-2.1-.4-4.9 6.9-7.4 6.5-2.2 18.5-3.5 33-3.6 16-.1 27.4 1.3 29.9 2 5 2.5 15.9 3.4 24.6 2 9-1.4 12.3-4.8 7.5-7.4-9.6-5.3-34.3-6.9-46.4-7.3v-4.9c0-3-8.3-5.5-18.4-5.5-10.2 0-18.4 2.5-18.4 5.5v5.4c-16.1 1.1-29.9 3.3-39.6 6.6-16.6 5.7-21.6 12.7-13.1 18.8 8.2 5.9 27.7 9.7 52.1 10.2 19 .4 44.9 1 57.7 4.9 6.8 2.1 10.2 4.9 9.7 8s-5.1 6.1-12.6 8.2c-14.1 4-36.9 5.5-56.8 3.6-8.9-.8-24.2-3.1-27.8-8.7-1.9-3-11.5-4.9-21.5-4.4-10 .6-16.6 3.4-14.7 6.4 5.2 8.2 24.5 14.5 52.8 17.2 4.5.4 9.1.7 13.7 1v5c0 3 8.3 5.5 18.4 5.5 10.2 0 18.4-2.4 18.4-5.5V493c16.1-1.1 31.1-3.4 43-6.8 14.3-4.1 22.8-9.6 23.8-15.5 1.2-6.1-5.9-11.8-19.9-16.1z" class="st1"/><path d="M1709.7 454.6c-22.6-6.9-58.1-7.7-81.6-8.2-10.3-.2-17.9-1.5-20.7-3.5-3-2.1-.4-4.9 6.9-7.4 6.5-2.2 18.5-3.5 33-3.6 16-.1 27.4 1.3 29.9 2 5 2.5 15.9 3.4 24.6 2 9-1.4 12.3-4.8 7.5-7.4-9.6-5.3-34.3-6.9-46.4-7.3v-4.9c0-3-8.3-5.5-18.4-5.5-10.2 0-18.5 2.5-18.5 5.5v5.4c-16.1 1.1-29.9 3.3-39.5 6.6-16.7 5.7-21.6 12.7-13.1 18.8 8.2 5.9 27.7 9.7 52.1 10.2 19 .4 44.9 1 57.7 4.9 6.8 2.1 10.2 4.9 9.7 8s-5.1 6.1-12.6 8.2c-14.1 4-36.9 5.5-56.8 3.6-8.8-.8-24.2-3.1-27.8-8.7-1.9-3-11.5-4.9-21.5-4.4-10 .6-16.6 3.4-14.7 6.4 5.2 8.2 24.4 14.5 52.8 17.2 4.5.4 9.1.7 13.7 1v5c0 3 8.3 5.5 18.5 5.5s18.4-2.4 18.4-5.5V493c16.1-1.1 31.1-3.4 43-6.8 14.3-4.1 22.8-9.6 23.8-15.5 1.1-6.1-6-11.8-20-16.1z" class="st1"/><path id="AL_1_" d="m1431.8 473.3-56.6 10.4c-9.6-8.2-14.8-17.1-14.8-26.3 0-.7.1-1.4.1-2l70.5-12.9c-4.1 4.8-6.2 9.8-6.2 15 0 5.3 2.4 10.7 7 15.8z" class="st1"/><path d="m1827.1 400.7-56.5 10.4c-25.9-6.8-57.7-11.7-92.7-14l70.5-12.9c29.6 4.1 56.2 9.7 78.7 16.5z" class="st1"/><path id="E_12_" d="m1465.7 494.1-54.9 10.1c-8.6-3.6-16.2-7.4-22.8-11.3l55.1-10.1c6.2 4 13.8 7.8 22.6 11.3z" class="st1"/><path id="AB_10_" d="m1873.2 419.4-54.9 10.1c-6.7-4-14.9-7.7-24.3-11.1l55.1-10.1c9 3.5 17.1 7.2 24.1 11.1z" class="st1"/><path id="AC_8_" d="m1587.7 517.6-70.6 12.9c-24.3-3.4-46.6-7.8-66.3-13.1l57.8-10.6c23.1 5.2 49.9 8.9 79.1 10.8z" class="st1"/><path id="AM_1_" d="M1905.1 457.3c0 .7-.1 1.4-.1 2l-70.9 13c4.3-4.8 6.6-9.9 6.6-15.1 0-3.7-1.2-7.3-3.4-10.8l58.1-10.7c6.3 7 9.7 14.2 9.7 21.6z" class="st1"/><path d="M1632.7 538.2c-150.4 0-272.3-36.2-272.3-80.8V521c0 44.6 121.9 80.8 272.3 80.8S1905 565.6 1905 521l-1-57.1c-11.2 41.6-128.3 74.3-271.3 74.3z" class="st1"/><path d="M1396.1 561c11.7 6.1 26 11.7 42.4 16.7V514c-16.4-5-30.7-10.6-42.4-16.7V561zM1540.4 533.4c-14.8-1.6-29-3.5-42.4-5.8v63.7c13.5 2.3 27.6 4.2 42.4 5.8v-63.7zM1476.3 523.5c-7.3-1.5-14.4-3.2-21.2-4.9v63.7c6.8 1.7 13.9 3.4 21.2 4.9v-63.7z" class="st1"/><path id="L_14_" d="M1738.4 595.6c19.9-2.5 38.5-5.7 55.7-9.4v-63.7c-17.1 3.7-35.8 6.9-55.7 9.4v63.7z" class="st1"/><path d="M1854 504.4c-11.6 4.8-25 9.2-39.8 13.2v63.7c14.8-3.9 28.2-8.3 39.8-13.2v-63.7z" class="st1"/><path id="y_2_" d="M1905.1 379.3c0 44.6-121.9 80.8-272.3 80.8s-272.3-36.2-272.3-80.8 121.9-80.8 272.3-80.8c150.4-.1 272.3 36.1 272.3 80.8z" class="st1"/><path id="g_5_" d="M1840.7 379.3c0 34.1-93.1 61.7-207.9 61.7s-207.9-27.6-207.9-61.7 93.1-61.7 207.9-61.7c114.8-.1 207.9 27.6 207.9 61.7z" class="st1"/><path id="z_2_" d="M1840.7 379.3c0 32.2-87.9 58.2-196.2 58.2-108.4 0-196.2-26.1-196.2-58.2 0-32.2 87.8-58.3 196.2-58.3 108.3 0 196.2 26.1 196.2 58.3z" class="st1"/><path d="M1696.9 376.5c-22.6-6.9-58.1-7.7-81.6-8.2-10.3-.2-17.9-1.5-20.7-3.5-3-2.1-.4-4.9 6.9-7.4 6.5-2.2 18.5-3.5 33-3.6 16-.1 27.4 1.3 29.9 2 5 2.5 15.9 3.4 24.6 2 9-1.4 12.3-4.8 7.5-7.4-9.6-5.3-34.3-6.9-46.4-7.3v-4.9c0-3-8.3-5.5-18.4-5.5-10.2 0-18.4 2.5-18.4 5.5v5.4c-16.1 1.1-29.9 3.4-39.6 6.7-16.6 5.7-21.6 12.7-13.1 18.8 8.2 5.9 27.7 9.7 52.1 10.2 19 .4 44.9 1 57.7 4.9 6.8 2.1 10.2 4.9 9.7 8s-5.1 6.1-12.6 8.2c-14.1 4-36.9 5.5-56.8 3.6-8.9-.8-24.2-3.1-27.8-8.8-1.9-3-11.5-4.9-21.5-4.4-10 .6-16.6 3.4-14.7 6.4 5.2 8.2 24.5 14.5 52.8 17.2 4.5.4 9.1.8 13.7 1v5c0 3 8.3 5.5 18.4 5.5 10.2 0 18.4-2.5 18.4-5.5V415c16.1-1.1 31.1-3.4 43-6.8 14.3-4.1 22.8-9.6 23.8-15.5 1.2-6.1-5.9-11.9-19.9-16.2z" class="st1"/><path d="M1709.7 376.5c-22.6-6.9-58.1-7.7-81.6-8.2-10.3-.2-17.9-1.5-20.7-3.5-3-2.1-.4-4.9 6.9-7.4 6.5-2.2 18.5-3.5 33-3.6 16-.1 27.4 1.3 29.9 2 5 2.5 15.9 3.4 24.6 2 9-1.4 12.3-4.8 7.5-7.4-9.6-5.3-34.3-6.9-46.4-7.3v-4.9c0-3-8.3-5.5-18.4-5.5-10.2 0-18.5 2.5-18.5 5.5v5.4c-16.1 1.1-29.9 3.4-39.5 6.7-16.7 5.7-21.6 12.7-13.1 18.8 8.2 5.9 27.7 9.7 52.1 10.2 19 .4 44.9 1 57.7 4.9 6.8 2.1 10.2 4.9 9.7 8s-5.1 6.1-12.6 8.2c-14.1 4-36.9 5.5-56.8 3.6-8.8-.8-24.2-3.1-27.8-8.8-1.9-3-11.5-4.9-21.5-4.4-10 .6-16.6 3.4-14.7 6.4 5.2 8.2 24.4 14.5 52.8 17.2 4.5.4 9.1.8 13.7 1v5c0 3 8.3 5.5 18.5 5.5s18.4-2.5 18.4-5.5V415c16.1-1.1 31.1-3.4 43-6.8 14.3-4.1 22.8-9.6 23.8-15.5 1.1-6.1-6-11.9-20-16.2z" class="st1"/><path id="AA_3_" d="m1431.8 395.2-56.6 10.4c-9.6-8.2-14.8-17.1-14.8-26.3 0-.7.1-1.4.1-2l70.5-12.9c-4.1 4.8-6.2 9.8-6.2 15 0 5.4 2.4 10.7 7 15.8z" class="st1"/><path id="AK_2_" d="m1827.1 322.7-56.5 10.4c-25.9-6.8-57.7-11.7-92.7-14l70.5-12.9c29.6 4 56.2 9.6 78.7 16.5z" class="st1"/><path id="Q_11_" d="m1465.7 416.1-54.9 10.1c-8.6-3.6-16.2-7.4-22.8-11.3l55.1-10.1c6.2 3.9 13.8 7.7 22.6 11.3z" class="st1"/><path id="AB_11_" d="m1873.2 341.3-54.9 10.1c-6.7-4-14.9-7.7-24.3-11.1l55.1-10.1c9 3.5 17.1 7.2 24.1 11.1z" class="st1"/><path id="AC_9_" d="m1587.7 439.5-70.6 12.9c-24.3-3.4-46.6-7.8-66.3-13.1l57.8-10.6c23.1 5.2 49.9 8.9 79.1 10.8z" class="st1"/><path id="AP_1_" d="m1905.1 379.3-.1 2.1-70.9 13c4.3-4.8 6.6-9.8 6.6-15.1 0-3.7-1.2-7.3-3.4-10.8l58.1-10.7c6.3 6.9 9.7 14 9.7 21.5z" class="st1"/><path d="M1632.7 460.1c-150.4 0-272.3-36.2-272.3-80.8V443c0 44.7 121.9 80.8 272.3 80.8S1905 487.6 1905 443l-1-57.1c-11.2 41.5-128.3 74.2-271.3 74.2z" class="st1"/><path d="M1396.1 482.9c11.7 6.1 26 11.7 42.4 16.7v-63.7c-16.4-5-30.7-10.6-42.4-16.6v63.6zM1540.4 455.3c-14.8-1.6-29-3.5-42.4-5.8v63.7c13.5 2.3 27.6 4.2 42.4 5.8v-63.7zM1476.3 445.4c-7.3-1.5-14.4-3.2-21.2-4.9v63.7c6.8 1.7 13.9 3.4 21.2 4.9v-63.7z" class="st1"/><path id="L_15_" d="M1738.4 517.5c19.9-2.5 38.5-5.7 55.7-9.4v-63.7c-17.1 3.7-35.8 6.9-55.7 9.4v63.7z" class="st1"/><path d="M1854 426.4c-11.6 4.8-25 9.2-39.8 13.1v63.7c14.8-3.9 28.2-8.3 39.8-13.1v-63.7z" class="st1"/><path id="N_2_" d="M1905.1 302.5c0 44.7-121.9 80.8-272.3 80.8s-272.3-36.2-272.3-80.8 121.9-80.8 272.3-80.8 272.3 36.1 272.3 80.8z" class="st1"/><path id="AG_4_" d="M1840.7 302.5c0 34.1-93.1 61.7-208 61.7-114.8 0-207.9-27.6-207.9-61.7s93.1-61.7 207.9-61.7c114.9 0 208 27.6 208 61.7z" class="st1"/><path d="M1840.7 302.5c0 32.2-87.9 58.3-196.2 58.3-108.4 0-196.2-26.1-196.2-58.3s87.8-58.2 196.2-58.2c108.3 0 196.2 26 196.2 58.2z" class="st1"/><path d="M1696.9 299.8c-22.6-6.9-58.1-7.7-81.6-8.2-10.3-.2-17.9-1.5-20.7-3.5-3-2.1-.4-4.9 6.9-7.4 6.5-2.2 18.5-3.5 33-3.6 16-.1 27.4 1.3 29.9 2 5 2.5 15.9 3.4 24.6 2 9-1.4 12.3-4.8 7.5-7.4-9.6-5.3-34.3-6.9-46.4-7.3v-4.9c0-3-8.3-5.5-18.4-5.5-10.2 0-18.4 2.4-18.4 5.5v5.4c-16.1 1.1-29.9 3.4-39.6 6.6-16.7 5.7-21.6 12.7-13.1 18.8 8.2 5.9 27.7 9.7 52.1 10.2 19 .4 44.9 1 57.7 4.9 6.8 2.1 10.2 4.9 9.7 8s-5.1 6.1-12.6 8.2c-14.1 4-36.9 5.5-56.8 3.6-8.9-.8-24.2-3.1-27.8-8.7-1.9-3-11.5-4.9-21.5-4.4-10 .6-16.6 3.4-14.7 6.4 5.2 8.2 24.5 14.5 52.8 17.2 4.5.4 9.1.7 13.7 1v5c0 3 8.3 5.5 18.4 5.5 10.2 0 18.4-2.5 18.4-5.5v-5.4c16.1-1.1 31.1-3.4 43-6.8 14.3-4.1 22.8-9.6 23.8-15.5 1.2-6.2-5.9-11.9-19.9-16.2z" class="st1"/><path d="M1709.7 299.8c-22.6-6.9-58.1-7.7-81.6-8.2-10.3-.2-17.9-1.5-20.7-3.5-3-2.1-.4-4.9 6.9-7.4 6.5-2.2 18.5-3.5 33-3.6 16-.1 27.4 1.3 29.9 2 5 2.5 15.9 3.4 24.6 2 9-1.4 12.3-4.8 7.5-7.4-9.6-5.3-34.3-6.9-46.4-7.3v-4.9c0-3-8.3-5.5-18.4-5.5-10.2 0-18.5 2.4-18.5 5.5v5.4c-16.1 1.1-29.9 3.4-39.6 6.6-16.7 5.7-21.6 12.7-13.1 18.8 8.2 5.9 27.7 9.7 52.1 10.2 19 .4 44.9 1 57.7 4.9 6.8 2.1 10.2 4.9 9.7 8s-5.1 6.1-12.6 8.2c-14.1 4-36.9 5.5-56.8 3.6-8.8-.8-24.2-3.1-27.8-8.7-1.9-3-11.5-4.9-21.5-4.4-10 .6-16.6 3.4-14.7 6.4 5.2 8.2 24.5 14.5 52.9 17.2 4.5.4 9.1.7 13.7 1v5c0 3 8.3 5.5 18.5 5.5s18.4-2.5 18.4-5.5v-5.4c16.1-1.1 31.1-3.4 43-6.8 14.3-4.1 22.8-9.6 23.8-15.5 1.1-6.2-6-11.9-20-16.2z" class="st1"/><path id="AF_3_" d="m1431.8 318.4-56.6 10.4c-9.6-8.3-14.8-17.1-14.8-26.3 0-.7.1-1.4.1-2l70.5-12.9c-4.1 4.8-6.2 9.8-6.2 15 0 5.4 2.4 10.7 7 15.8z" class="st1"/><path id="e_2_" d="m1827.1 245.9-56.6 10.4c-25.9-6.8-57.7-11.8-92.7-14l70.5-12.9c29.7 4 56.3 9.7 78.8 16.5z" class="st1"/><path id="Q_12_" d="m1465.7 339.3-54.9 10.1c-8.6-3.6-16.2-7.4-22.8-11.3l55.1-10.1c6.2 3.9 13.8 7.7 22.6 11.3z" class="st1"/><path id="AB_12_" d="m1873.2 264.5-54.9 10.1c-6.7-4-14.9-7.7-24.3-11.1l55.1-10.1c9 3.5 17.1 7.2 24.1 11.1z" class="st1"/><path id="AC_10_" d="m1587.7 362.7-70.6 12.9c-24.3-3.4-46.6-7.8-66.3-13.1l57.8-10.6c23.1 5.2 49.9 8.9 79.1 10.8z" class="st1"/><path id="AQ_1_" d="m1905.1 302.5-.1 2.1-70.9 13c4.3-4.8 6.6-9.9 6.6-15.1 0-3.7-1.2-7.3-3.4-10.8l58.1-10.6c6.3 6.8 9.7 14 9.7 21.4z" class="st1"/><path id="S_10_" d="M1632.7 383.3c-150.4 0-272.3-36.2-272.3-80.8v63.7c0 44.6 121.9 80.8 272.3 80.8s272.3-36.2 272.3-80.8l-1-57.1c-11.2 41.5-128.3 74.2-271.3 74.2z" class="st1"/><path id="T_21_" d="M1396.1 406.2c11.7 6.1 26 11.7 42.4 16.7v-63.7c-16.4-5-30.7-10.6-42.4-16.7v63.7z" class="st1"/><path d="M1540.4 378.6c-14.8-1.6-29-3.5-42.4-5.8v63.7c13.5 2.3 27.6 4.2 42.4 5.8v-63.7zM1476.3 368.6c-7.3-1.5-14.4-3.2-21.2-4.9v63.7c6.8 1.7 13.9 3.4 21.2 4.9v-63.7z" class="st1"/><path id="L_16_" d="M1738.4 440.7c19.9-2.5 38.5-5.7 55.7-9.4v-63.7c-17.1 3.7-35.8 6.9-55.7 9.4v63.7z" class="st1"/><path d="M1854 349.6c-11.6 4.8-25 9.2-39.8 13.2v63.7c14.8-3.9 28.2-8.4 39.8-13.2v-63.7z" class="st1"/><path d="m21.5 715.9 486.8-256.5L527 563.3l554.1-307.4 35.4 132.1 572.7-332.4" style="fill:none;stroke:#dedede;stroke-width:74;stroke-miterlimit:10"/><path d="m1628.3 2.7 72.6 142.2L1750.1 23 1628.3 2.7z" class="st1"/></svg>